<?xml version="1.0" encoding="UTF-8" standalone="no" ?>
<!DOCTYPE svg PUBLIC "-//W3C//DTD SVG 1.1//EN" "http://www.w3.org/Graphics/SVG/1.1/DTD/svg11.dtd">
<svg xmlns="http://www.w3.org/2000/svg" xmlns:xlink="http://www.w3.org/1999/xlink" version="1.1" width="1080" height="1080" viewBox="0 0 1080 1080" xml:space="preserve">
<desc>Created with Fabric.js 5.2.4</desc>
<defs>
</defs>
<g transform="matrix(1 0 0 1 540 540)" id="3d78b9a1-073b-411e-9d2d-3d7dd008cb1d"  >
<rect style="stroke: none; stroke-width: 1; stroke-dasharray: none; stroke-linecap: butt; stroke-dashoffset: 0; stroke-linejoin: miter; stroke-miterlimit: 4; fill: rgb(255,255,255); fill-rule: nonzero; opacity: 1; visibility: hidden;" vector-effect="non-scaling-stroke"  x="-540" y="-540" rx="0" ry="0" width="1080" height="1080" />
</g>
<g transform="matrix(1 0 0 1 540 540)" id="37c43200-aa03-4841-ba9b-f196b2ef7aa3"  >
</g>
<g transform="matrix(1.34 0 0 1.98 539 553.93)"  >
<g style="" vector-effect="non-scaling-stroke"   >
		<g transform="matrix(1.87 0 0 1.87 204.19 -64.62)"  >
<path style="stroke: rgb(0,0,0); stroke-width: 1; stroke-dasharray: none; stroke-linecap: butt; stroke-dashoffset: 0; stroke-linejoin: miter; stroke-miterlimit: 4; fill: rgb(255,255,255); fill-rule: nonzero; opacity: 1;" vector-effect="non-scaling-stroke"  transform=" translate(-323.81, -115.05)" d="M 306.436 111.077 C 307.736 113.369 308.99399999999997 116.137 307.772 118.331 C 307.46511818887564 118.83644060603471 307.3346330546956 119.42942695705243 307.401 120.017 C 307.637 121.559 309.01800000000003 121.439 310.101 121.72399999999999 C 310.7896904217758 121.91471025279749 311.4215673301087 122.270291174597 311.942 122.75999999999999 C 312.7622193088833 123.88596845712779 313.6675376761386 124.94741078210394 314.65000000000003 125.93499999999997 C 315.3274835082697 126.64120058165328 316.09193616903525 127.2584751037747 316.925 127.77199999999999 C 318.12498817698 128.52894605293466 319.5720311540031 128.7903172943246 320.961 128.501 C 323.312178416265 127.98647611118548 325.4777236966428 126.83834287406407 327.223 125.18100000000001 C 327.548061345159 124.82859020210311 328.08446964318426 124.77289285486408 328.475 125.05100000000002 C 329.9706601480339 126.05160282829851 331.1731323389898 127.4321679155039 331.959 129.05100000000002 C 335.707 125.25100000000002 344.097 115.28000000000002 344.097 115.28000000000002 C 343.70343509827467 114.85637787989843 343.37059093849246 114.38016505270748 343.108 113.86500000000001 C 342.74737057061037 113.06756747746154 342.59034121095596 112.19308231264623 342.651 111.32000000000001 C 339.308 111.501 334.087 109.905 331.919 108.18900000000001 L 331.719 108.02600000000001 C 332.0279191334477 106.34306852766284 331.7057178928403 104.60531796920449 330.814 103.14500000000001 C 330.2325075676832 102.03592907521325 329.16517562410604 101.26318666946115 327.93 101.05700000000002 C 327.11138113792515 101.03259550157817 326.32493610733565 101.37645877440244 325.78700000000003 101.99400000000001 C 325.1891452559643 102.67649009666606 324.8494491463991 103.54696137742698 324.82700000000006 104.45400000000001 C 322.55000000000007 103.212 321.70300000000003 102.47600000000001 319.7540000000001 101.927 C 316.36300000000006 101.117 311.69500000000005 100.733 307.54800000000006 102.418 C 305.84728926820816 103.10979435524519 304.42835828502825 104.3529877954599 303.51900000000006 105.94800000000001 C 304.1144645007185 107.31888710296619 304.8518168887002 108.62366566951754 305.71900000000005 109.84100000000001 C 305.946 110.233 306.192 110.647 306.436 111.077 Z" stroke-linecap="round" />
</g>
		<g transform="matrix(1.87 0 0 1.87 202.47 -101.45)"  >
<path style="stroke: rgb(0,0,0); stroke-width: 1; stroke-dasharray: none; stroke-linecap: butt; stroke-dashoffset: 0; stroke-linejoin: miter; stroke-miterlimit: 4; fill: rgb(122,116,115); fill-rule: nonzero; opacity: 1;" vector-effect="non-scaling-stroke"  transform=" translate(-322.89, -95.31)" d="M 305.782 87.964 C 303.0820932310722 91.32075452611716 301.6484837231177 95.51999146262676 301.73199999999997 99.827 C 301.87621057069276 101.98560154369207 302.47531943872406 104.08929838234799 303.49 106 C 304.3933498247888 104.37782216477724 305.82413495093755 103.11322687695551 307.545 102.416 C 311.692 100.731 316.36 101.116 319.75100000000003 101.925 C 321.70000000000005 102.474 322.55100000000004 103.21 324.824 104.452 C 324.84644914639904 103.54496137742696 325.1861452559643 102.67449009666605 325.784 101.992 C 326.3219361073356 101.37445877440243 327.1083811379251 101.03059550157816 327.92699999999996 101.055 C 329.162175624106 101.26118666946114 330.22950756768313 102.03392907521322 330.811 103.143 C 331.70271789284027 104.60331796920448 332.02491913344767 106.34106852766283 331.71599999999995 108.024 L 331.91599999999994 108.187 C 334.08399999999995 109.904 339.3059999999999 111.499 342.6499999999999 111.317 C 342.84406998128145 109.36463274613367 343.1809724399713 107.42911475181538 343.6579999999999 105.526 C 344.7408808418439 99.7671813424833 343.53821196951645 93.81301991074008 340.3049999999999 88.92599999999999 C 337.9839068832152 85.60281886495267 334.79839012204167 82.97749936312579 331.0929999999999 81.33399999999999 C 322.7029999999999 77.71199999999999 317.1129999999999 79.722 313.8599999999999 81.26299999999999 C 310.75931129614713 82.78293903543506 308.05185884682555 84.9989363315237 305.9489999999999 87.73799999999997 Q 305.866 87.855 305.782 87.964 Z" stroke-linecap="round" />
</g>
		<g transform="matrix(1.87 0 0 1.87 192.8 -60.21)"  >
<path style="stroke: rgb(0,0,0); stroke-width: 1; stroke-dasharray: none; stroke-linecap: butt; stroke-dashoffset: 0; stroke-linejoin: miter; stroke-miterlimit: 4; fill: rgb(33,23,21); fill-rule: nonzero; opacity: 1;" vector-effect="non-scaling-stroke"  transform=" translate(-317.7, -117.41)" d="M 301.717 106.789 C 302.5624660908632 108.5206304614383 303.51048341588324 110.20028074141393 304.556 111.81899999999999 C 305.33299999999997 113.168 306.46999999999997 114.97200000000001 306.26099999999997 116.613 C 306.152 117.465 305.594 118.187 305.45199999999994 119.049 C 305.2805179477797 120.01825613419008 305.4766263602191 121.01662623388158 306.00199999999995 121.849 C 306.99299999999994 123.35900000000001 308.52799999999996 123.21600000000001 310.00199999999995 123.806 C 310.602 124.045 310.95099999999996 124.75099999999999 311.41599999999994 125.321 C 312.0345526118101 126.08517455825496 312.69665133458415 126.81304909968078 313.39899999999994 127.50099999999999 C 314.7813558502808 128.99180341474033 316.5809537505636 130.0313465085714 318.56299999999993 130.484 C 320.40035942029544 130.72473245970076 322.2680591036815 130.42520555233725 323.93799999999993 129.622 C 324.8145173572459 129.26958990240496 325.6584205671276 128.84094596431672 326.4599999999999 128.341 C 326.86599999999993 128.08100000000002 327.25299999999993 127.796 327.6309999999999 127.49700000000001 C 327.8169999999999 127.35500000000002 327.99799999999993 127.20600000000002 328.1719999999999 127.05000000000001 C 328.5059999999999 126.80300000000001 328.5019999999999 126.75000000000001 328.1609999999999 126.9 L 327.1519999999999 126.62700000000001 C 327.61101841004654 126.81939953983785 328.02107098222785 127.11224541847066 328.35199999999986 127.48400000000001 C 329.15160724729685 128.20153256388502 329.7929068146891 129.07782772421444 330.23499999999984 130.05700000000002 C 330.79753824458925 131.0038102984147 332.01603219314455 131.3235758887154 332.97099999999983 130.775 C 333.9028588677209 130.2012893793772 334.21906506822927 128.99635878802508 333.68899999999985 128.03900000000002 C 332.81099999999986 126.09100000000002 330.68899999999985 123.36900000000001 328.42899999999986 122.93900000000002 C 326.6129999999999 122.59100000000002 325.64599999999984 124.14900000000002 324.28199999999987 124.99300000000002 C 323.00037944191337 125.8730961444943 321.52528674638455 126.43088701029193 319.98199999999986 126.61900000000003 C 316.4909999999999 126.78300000000003 314.94799999999987 122.40200000000003 312.54299999999984 120.69800000000002 C 311.9279502061051 120.264677901022 311.23849762013526 119.94808561228265 310.50899999999984 119.76400000000002 C 310.32099999999986 119.71700000000003 309.1469999999998 119.41400000000003 309.10899999999987 119.44700000000003 C 309.00899999999984 119.54100000000003 309.50899999999984 119.70600000000003 309.38899999999984 119.74700000000003 C 309.43000293961387 119.54969173363311 309.49446084333925 119.3579966136998 309.58099999999985 119.17600000000003 C 309.7591792178301 118.80205072826453 309.9128371559265 118.41690376603577 310.0409999999998 118.02300000000002 C 310.25760408945894 117.20828305353893 310.3146508799734 116.35937248040699 310.20899999999983 115.52300000000002 C 309.7479999999998 111.45800000000003 306.72599999999983 108.40800000000003 305.1709999999998 104.77300000000002 C 304.60917844816703 103.82515301223097 303.3894762370048 103.50551613891103 302.43499999999983 104.05600000000003 C 301.50446287000983 104.63068946491477 301.18856699747386 105.83443752516334 301.7169999999998 106.79200000000003 Z" stroke-linecap="round" />
</g>
		<g transform="matrix(1.87 0 0 1.87 202.45 -97.68)"  >
<path style="stroke: rgb(0,0,0); stroke-width: 1; stroke-dasharray: none; stroke-linecap: butt; stroke-dashoffset: 0; stroke-linejoin: miter; stroke-miterlimit: 4; fill: rgb(33,23,21); fill-rule: nonzero; opacity: 1;" vector-effect="non-scaling-stroke"  transform=" translate(-322.87, -97.33)" d="M 305.587 105.678 C 303.283966436167 101.64441563207244 303.168917998664 96.72177121303118 305.281 92.585 C 307.71349640386023 87.58440878736221 312.06286661749556 83.77848446643468 317.342 82.03099999999999 C 322.464 80.446 328.142 81.64299999999999 332.654 84.41 C 337.9238506898382 87.61220215615984 341.3685254159597 93.11834171191956 341.943 99.258 C 342.13482007682865 101.8590175110428 341.92024709249137 104.47404141292671 341.30699999999996 107.00900000000001 C 340.86840510257315 108.62524505781457 340.6500987873118 110.29332058536659 340.65799999999996 111.968 C 340.76021127172714 113.7325952302109 341.47700972306706 115.40571461638392 342.68399999999997 116.697 C 344.37699999999995 118.642 347.19599999999997 115.803 345.51199999999994 113.86800000000001 C 343.631 111.706 345.21799999999996 108.28500000000001 345.631 105.82500000000002 C 346.1026336787847 103.0635176077337 346.1363805007048 100.2449830409671 345.731 97.47300000000001 C 344.6604789703964 90.53840945059716 340.54720294420486 84.44496603560411 334.516 80.85900000000001 C 329.237 77.68 322.516 76.33900000000001 316.529 78.10000000000001 C 310.5452621043853 79.92803817519318 305.4934123477795 83.98670357851586 302.419 89.436 C 300.8139980901991 92.24839558187868 299.88934991937793 95.3973362969531 299.719 98.631 C 299.69062057088865 101.8162833965089 300.526997412115 104.94958605872287 302.139 107.69699999999999 C 303.38 109.953 306.839 107.937 305.592 105.678 Z" stroke-linecap="round" />
</g>
		<g transform="matrix(1.87 0 0 1.87 229.1 -74.5)"  >
<path style="stroke: rgb(0,0,0); stroke-width: 1; stroke-dasharray: none; stroke-linecap: butt; stroke-dashoffset: 0; stroke-linejoin: miter; stroke-miterlimit: 4; fill: rgb(33,23,21); fill-rule: nonzero; opacity: 1;" vector-effect="non-scaling-stroke"  transform=" translate(-337.16, -109.76)" d="M 330.506 109.605 C 332.18575102105484 110.84491317701728 334.0777753007955 111.76771133459094 336.089 112.328 C 338.1269538685199 112.99128771893092 340.25682339253353 113.32877298656105 342.4 113.328 C 343.50456949966156 113.328 344.4 112.4325694996616 344.4 111.328 C 344.4 110.22343050033841 343.50456949966156 109.328 342.4 109.328 Q 341.77299999999997 109.342 341.14799999999997 109.294 C 340.926 109.277 340.705 109.249 340.48299999999995 109.23 C 340.2289999999999 109.20700000000001 340.8759999999999 109.29100000000001 340.48299999999995 109.23 L 340.17699999999996 109.182 C 339.2056106619703 109.02147531168715 338.24561025151326 108.79834369227682 337.30299999999994 108.514 C 336.84999999999997 108.378 336.40299999999996 108.229 335.95599999999996 108.065 C 335.741 107.986 335.52899999999994 107.902 335.31499999999994 107.818 C 335.0849999999999 107.727 335.24799999999993 107.80799999999999 335.38199999999995 107.847 C 335.26851329675895 107.80543296835349 335.15793326706637 107.75632340833896 335.05099999999993 107.69999999999999 C 334.6789999999999 107.52899999999998 334.31299999999993 107.34599999999999 333.9579999999999 107.14299999999999 C 333.79599999999994 107.04999999999998 333.6359999999999 106.95499999999998 333.4799999999999 106.85299999999998 C 333.3239999999999 106.75099999999998 332.8199999999999 106.37499999999999 333.3319999999999 106.77199999999998 C 332.94649144936443 106.41308718229548 332.4444010605127 106.20536237502654 331.9179999999999 106.18699999999998 C 331.1092082041262 106.18717269602749 330.3801318995666 106.67445500019348 330.0706440437756 107.42169088397739 C 329.7611561879846 108.1689267677613 329.93218416884474 109.02901149125462 330.5039999999999 109.60099999999998 Z" stroke-linecap="round" />
</g>
		<g transform="matrix(1.87 0 0 1.87 189.76 -87.52)"  >
<path style="stroke: rgb(0,0,0); stroke-width: 1; stroke-dasharray: none; stroke-linecap: butt; stroke-dashoffset: 0; stroke-linejoin: miter; stroke-miterlimit: 4; fill: rgb(33,23,21); fill-rule: nonzero; opacity: 1;" vector-effect="non-scaling-stroke"  transform=" translate(-316.08, -102.78)" d="M 308.077 104.349 C 310.87811228761313 103.29516560647025 313.9015304347753 102.9723464576896 316.862 103.411 C 318.0647700663154 103.52938810230235 319.24570634127974 103.81166888141776 320.372 104.25 C 320.546 104.325 321.301 104.739 321.67900000000003 104.957 C 322.319 105.327 322.95300000000003 105.704 323.59700000000004 106.064 C 325.848 107.32 327.867 103.86399999999999 325.61600000000004 102.61 C 324.3338633397758 101.82335536660331 323.0069442980197 101.11214812982914 321.64200000000005 100.48000000000002 C 320.1904249496676 99.93553092342657 318.67270719851933 99.58712507583304 317.1290000000001 99.444 C 313.72274258177464 98.9421307157637 310.24501232476206 99.30245313883331 307.01400000000007 100.49200000000002 C 305.96868015427617 100.81082327203826 305.3542546329118 101.89045668814992 305.6140000000001 102.952 C 305.9125611839202 104.01334796073355 307.0090245027635 104.63735147552244 308.07400000000007 104.352 Z" stroke-linecap="round" />
</g>
		<g transform="matrix(1.87 0 0 1.87 212.68 -80.98)"  >
<path style="stroke: rgb(0,0,0); stroke-width: 1; stroke-dasharray: none; stroke-linecap: butt; stroke-dashoffset: 0; stroke-linejoin: miter; stroke-miterlimit: 4; fill: rgb(33,23,21); fill-rule: nonzero; opacity: 1;" vector-effect="non-scaling-stroke"  transform=" translate(-328.36, -106.28)" d="M 326.83 104.425 C 326.859 104.265 326.89 104.107 326.93 103.95 C 326.945 103.896 327.083 103.47 326.984 103.739 C 326.88499999999993 104.00800000000001 327.114 103.533 327.13899999999995 103.47800000000001 C 327.21299999999997 103.31200000000001 326.93899999999996 103.653 327.19599999999997 103.41100000000002 C 327.25699999999995 103.35200000000002 327.65599999999995 103.05000000000001 327.304 103.27700000000002 C 327.41799999999995 103.20400000000002 327.541 103.14200000000001 327.652 103.06700000000002 C 327.836 102.94400000000002 327.337 103.14900000000002 327.688 103.06700000000002 C 328.178 102.95300000000002 327.26599999999996 103.06700000000002 327.769 103.05500000000002 C 328.212 103.04500000000002 327.432 102.91800000000002 327.846 103.06200000000003 C 327.904 103.08200000000002 328.297 103.24600000000002 328.046 103.12000000000003 C 327.79499999999996 102.99400000000004 328.187 103.21100000000003 328.235 103.24000000000004 C 328.33500000000004 103.30300000000004 328.635 103.59800000000004 328.36 103.31500000000004 C 328.46000000000004 103.41500000000003 328.56 103.50000000000004 328.66 103.59900000000005 C 328.702 103.64200000000005 329.035 104.03700000000005 328.879 103.83100000000005 C 328.723 103.62500000000004 328.97 103.97700000000005 328.99800000000005 104.02200000000005 C 329.09800000000007 104.17600000000004 329.17900000000003 104.33600000000004 329.261 104.49700000000004 C 329.28200000000004 104.53700000000005 329.5 104.98500000000004 329.40000000000003 104.76800000000004 C 329.30000000000007 104.55100000000004 329.48600000000005 104.99300000000004 329.50000000000006 105.03700000000005 C 329.6115366903353 105.36852487587042 329.70434975715193 105.7060572879265 329.7780000000001 106.04800000000004 C 329.86800000000005 106.42900000000004 329.7780000000001 105.86300000000004 329.7940000000001 106.10300000000005 C 329.8030000000001 106.24200000000005 329.8200000000001 106.38100000000006 329.8250000000001 106.52100000000006 C 329.83693308947045 106.8548142438915 329.8242319776493 107.18905402865916 329.7870000000001 107.52100000000006 C 329.8180000000001 107.23700000000005 329.8070000000001 107.36300000000006 329.7650000000001 107.57000000000006 C 329.7360000000001 107.70800000000007 329.7040000000001 107.84600000000006 329.6650000000001 107.98300000000006 C 329.62000000000006 108.14900000000006 329.56500000000005 108.31500000000005 329.51400000000007 108.48300000000006 C 329.49800000000005 108.52800000000006 329.32900000000006 108.97000000000006 329.4240000000001 108.73800000000006 C 329.5190000000001 108.50600000000006 329.32400000000007 108.94900000000005 329.3030000000001 108.99100000000006 Q 329.1800000000001 109.24200000000006 329.0420000000001 109.48300000000006 C 328.8510000000001 109.82100000000005 328.6420000000001 110.14600000000006 328.4160000000001 110.46400000000006 C 327.8643544786765 111.41832002977188 328.1842172656559 112.63888430477274 329.1330000000001 113.20000000000006 C 330.090608538426 113.72871791671098 331.2946070974685 113.413311644576 331.8700000000001 112.48300000000006 C 333.03066376134717 110.88958596838636 333.70860584760385 108.99599964963042 333.8230000000001 107.02800000000006 C 333.873092818538 105.14788697560333 333.3304826536344 103.2996538994036 332.2720000000001 101.74500000000006 C 331.15302497478507 99.90379181466228 329.05821242470677 98.89004657835757 326.92000000000013 99.15500000000006 C 324.86856990342886 99.62674189136271 323.3053829261184 101.29105999482718 322.96300000000014 103.36800000000005 C 322.66918451309016 104.43308114004874 323.29441885995146 105.53468451309008 324.35950000000014 105.82850000000006 C 325.4245811400489 106.12231548691004 326.5261845130902 105.49708114004873 326.82000000000016 104.43200000000004 Z" stroke-linecap="round" />
</g>
		<g transform="matrix(1.87 0 0 1.87 182.92 -72.19)"  >
<path style="stroke: rgb(0,0,0); stroke-width: 1; stroke-dasharray: none; stroke-linecap: butt; stroke-dashoffset: 0; stroke-linejoin: miter; stroke-miterlimit: 4; fill: rgb(33,23,21); fill-rule: nonzero; opacity: 1;" vector-effect="non-scaling-stroke"  transform=" translate(-312.41, -111)" d="M 310.1 110.947 C 310.315 112.061 311.644 114.19200000000001 313.47900000000004 113.48100000000001 C 315.76700000000005 112.281 314.50600000000003 109.52100000000002 313.07900000000006 108.656 C 311.913 107.948 309.83 108.482 310.1 110.947 Z" stroke-linecap="round" />
</g>
		<g transform="matrix(1.87 0 0 1.87 218.08 -70.05)"  >
<path style="stroke: rgb(0,0,0); stroke-width: 1; stroke-dasharray: none; stroke-linecap: butt; stroke-dashoffset: 0; stroke-linejoin: miter; stroke-miterlimit: 4; fill: rgb(33,23,21); fill-rule: nonzero; opacity: 1;" vector-effect="non-scaling-stroke"  transform=" translate(-331.25, -112.14)" d="M 331.55 117.4 C 331.96795674482127 116.80667466368482 332.3200336224386 116.1695831708535 332.6 115.5 C 333.02058279175344 114.5623836920794 333.3927395094805 113.60378809269629 333.71500000000003 112.628 C 333.9848052207738 111.82070729221685 334.211130096616 110.9995285391613 334.39300000000003 110.16799999999999 C 334.57812825223874 109.43289021141005 334.6734900653254 108.67805445148507 334.677 107.92 C 334.677 106.81543050033841 333.7815694996616 105.92 332.677 105.92 C 331.57243050033844 105.92 330.677 106.81543050033841 330.677 107.92 C 330.677 108.038 330.677 108.156 330.677 108.274 C 330.677 108.392 330.612 108.863 330.67 108.436 C 330.73 107.99300000000001 330.649 108.549 330.629 108.658 C 330.596 108.83800000000001 330.56 109.019 330.52000000000004 109.19800000000001 C 330.34111360017454 109.99758889864883 330.1218325426919 110.78760147560688 329.86300000000006 111.56500000000001 Q 329.66900000000004 112.15800000000002 329.44800000000004 112.74200000000002 C 329.369 112.95100000000002 329.285 113.15700000000002 329.20300000000003 113.36400000000002 C 329.05100000000004 113.74600000000002 329.403 112.91600000000003 329.23600000000005 113.28700000000002 C 329.19300000000004 113.38700000000001 329.15100000000007 113.48000000000002 329.10800000000006 113.57700000000003 C 328.83697942753633 114.21094602454806 328.49942103696867 114.81432745753891 328.10100000000006 115.37700000000002 C 327.83087624554037 115.84323062906401 327.7588411651765 116.39826092326786 327.90100000000007 116.91800000000002 C 328.0432416985768 117.41920018714592 328.37211895495676 117.8468479797183 328.82000000000005 118.11300000000001 C 329.7777761825202 118.63783792672619 330.97872480814635 118.32311564435267 331.55600000000004 117.39600000000002 Z" stroke-linecap="round" />
</g>
		<g transform="matrix(1.87 0 0 1.87 202.05 -78.79)"  >
<path style="stroke: rgb(0,0,0); stroke-width: 1; stroke-dasharray: none; stroke-linecap: butt; stroke-dashoffset: 0; stroke-linejoin: miter; stroke-miterlimit: 4; fill: rgb(33,23,21); fill-rule: nonzero; opacity: 1;" vector-effect="non-scaling-stroke"  transform=" translate(-322.66, -107.46)" d="M 322.5 112.917 C 322.922 111.429 323.425 109.96000000000001 323.984 108.517 C 324.07099999999997 108.292 324.15999999999997 108.067 324.25 107.844 C 324.296 107.72999999999999 324.343 107.61699999999999 324.389 107.50399999999999 C 324.574 107.05399999999999 324.274 107.76599999999999 324.389 107.50399999999999 C 324.599 107.029 324.808 106.55399999999999 325.034 106.08599999999998 C 325.45548880480203 105.19748546664663 325.9400613372721 104.34029336610482 326.484 103.52099999999999 C 327.0337318906699 102.56618642287842 326.71374160387455 101.34683624924035 325.76599999999996 100.78499999999998 C 324.8088958097997 100.25475527720174 323.60403785237094 100.57050204455422 323.03 101.50199999999998 C 321.86892606356906 103.33041556709574 320.912825172 105.2811833279717 320.179 107.31899999999999 C 319.599 108.80399999999999 319.07899999999995 110.31899999999999 318.643 111.85199999999999 C 318.3494606554649 112.91708114004868 318.9749188599513 114.01846065546493 320.03999999999996 114.31200000000001 C 321.1050811400487 114.60553934453507 322.2064606554649 113.98008114004868 322.5 112.91499999999999 Z" stroke-linecap="round" />
</g>
		<g transform="matrix(1.87 0 0 1.87 193.51 -53.63)"  >
<path style="stroke: rgb(0,0,0); stroke-width: 1; stroke-dasharray: none; stroke-linecap: butt; stroke-dashoffset: 0; stroke-linejoin: miter; stroke-miterlimit: 4; fill: rgb(255,255,255); fill-rule: nonzero; opacity: 1;" vector-effect="non-scaling-stroke"  transform=" translate(-318.08, -120.94)" d="M 321.761 112.612 C 321.0666970863931 112.11399476563176 320.17052270720535 111.99298125205416 319.369 112.289 C 315.9841853537693 113.61295854360051 312.66890242237116 115.10822357256092 309.43600000000004 116.76900000000002 C 308.857 117.05900000000001 307.355 118.174 307.23600000000005 119.158 C 307.1238321339046 120.1612372170816 307.4372100098127 121.1655697846621 308.1 121.927 C 308.93195956464564 123.10508631501409 309.88627540569775 124.19180635600145 310.947 125.169 C 312.247 126.361 315.247 128.982 317.02 129.42200000000003 C 321.229 130.46500000000003 323.255 128.87500000000003 325.40799999999996 127.15000000000002 C 327.39211240747363 125.35357303427162 328.64933593482476 122.89248860806475 328.94199999999995 120.23200000000001 C 329.00446361681935 119.6385085667801 328.8063582820116 119.0471112413228 328.39899999999994 118.61100000000002 C 327.49899999999997 117.64000000000001 326.0779999999999 116.95200000000001 324.75699999999995 115.76200000000001 C 323.658 114.771 322.658 113.252 321.761 112.612 Z" stroke-linecap="round" />
</g>
		<g transform="matrix(1.87 0 0 1.87 193.43 -53.57)"  >
<path style="stroke: rgb(0,0,0); stroke-width: 1; stroke-dasharray: none; stroke-linecap: butt; stroke-dashoffset: 0; stroke-linejoin: miter; stroke-miterlimit: 4; fill: rgb(33,23,21); fill-rule: nonzero; opacity: 1;" vector-effect="non-scaling-stroke"  transform=" translate(-318.04, -120.97)" d="M 322.771 110.885 C 320.277 109.325 317.733 110.747 315.343 111.78 C 313.103 112.747 310.89300000000003 113.796 308.716 114.897 C 306.786 115.87400000000001 305.044 117.646 305.22700000000003 119.952 C 305.41600000000005 122.33 307.333 124.416 308.95000000000005 126.026 C 311.89000000000004 128.953 315.42100000000005 131.92 319.80500000000006 131.75 C 323.95900000000006 131.588 327.9050000000001 128.459 329.6480000000001 124.791 C 330.9480000000001 122.051 331.7890000000001 118.734 329.1140000000001 116.56 C 328.0720000000001 115.714 326.8880000000001 115.048 325.9200000000001 114.11 C 325.05791864506403 113.09077593670969 324.14194384549126 112.11838723730901 323.17600000000004 111.19699999999997 C 322.38049649433617 110.45110672570674 321.1425035056639 110.45110672570674 320.34700000000004 111.197 C 319.57321554417706 111.98126660019267 319.57321554417706 113.24173339980733 320.34700000000004 114.026 C 321.83900000000006 115.189 322.84700000000004 116.842 324.36300000000006 118.005 C 325.07300000000004 118.54899999999999 325.85600000000005 119.014 326.53400000000005 119.594 C 326.749 119.77799999999999 326.915 119.905 326.95500000000004 120.14699999999999 C 326.93890158378923 120.62267401981501 326.8348115907721 121.09124851606799 326.648 121.529 C 325.84467020862 124.34622755432599 323.7204362573868 126.59618451953284 320.954 127.56 C 317.907 128.429 315.588 126.575 313.401 124.683 C 312.15135883215214 123.64298033579398 311.0192866664539 122.4693273204078 310.02500000000003 121.183 C 309.725 120.783 309.105 120.07700000000001 309.211 119.555 C 309.25600000000003 119.331 309.79200000000003 118.89800000000001 310.12100000000004 118.68 C 311.83174081907623 117.68035795200186 313.6154708415179 116.81122413297106 315.45700000000005 116.08000000000001 C 316.43600000000004 115.63100000000001 317.42100000000005 115.19300000000001 318.4200000000001 114.78900000000002 C 319.14200000000005 114.49700000000001 320.0200000000001 113.87800000000001 320.75200000000007 114.33600000000001 C 322.941 115.708 324.951 112.248 322.771 110.885 Z" stroke-linecap="round" />
</g>
		<g transform="matrix(1.87 0 0 1.87 73.86 -83.06)"  >
<path style="stroke: rgb(0,0,0); stroke-width: 1; stroke-dasharray: none; stroke-linecap: butt; stroke-dashoffset: 0; stroke-linejoin: miter; stroke-miterlimit: 4; fill: rgb(255,255,255); fill-rule: nonzero; opacity: 1;" vector-effect="non-scaling-stroke"  transform=" translate(-253.96, -105.17)" d="M 241.3 122.855 C 246.526 122.855 261.868 122.75500000000001 266.745 122.75500000000001 L 266.745 87.485 C 261.868 87.485 246.39600000000002 87.685 241.169 87.685 C 241.169 95.342 241.3 111.443 241.3 122.857" stroke-linecap="round" />
</g>
		<g transform="matrix(1.87 0 0 1.87 73.86 -83.06)"  >
<path style="stroke: rgb(0,0,0); stroke-width: 1; stroke-dasharray: none; stroke-linecap: butt; stroke-dashoffset: 0; stroke-linejoin: miter; stroke-miterlimit: 4; fill: rgb(33,23,21); fill-rule: nonzero; opacity: 1;" vector-effect="non-scaling-stroke"  transform=" translate(-253.96, -105.17)" d="M 241.3 124.855 C 249.781 124.855 258.26300000000003 124.75500000000001 266.745 124.75500000000001 C 267.84304914057543 124.73941486983657 268.72941486983655 123.85304914057542 268.745 122.75500000000001 L 268.745 87.485 C 268.72941486983655 86.38695085942459 267.84304914057543 85.50058513016344 266.745 85.485 C 258.219 85.485 249.695 85.685 241.169 85.685 C 240.07117172399245 85.70110764779403 239.18510764779404 86.58717172399245 239.169 87.685 C 239.169 99.409 239.298 111.13300000000001 239.3 122.857 C 239.3 125.42999999999999 243.3 125.435 243.3 122.857 C 243.3 111.133 243.17100000000002 99.40899999999999 243.169 87.685 L 241.169 89.685 C 249.69500000000002 89.685 258.219 89.485 266.745 89.485 L 264.745 87.485 L 264.745 122.755 L 266.745 120.755 C 258.26300000000003 120.755 249.781 120.85499999999999 241.3 120.85499999999999 C 238.726 120.85499999999999 238.721 124.85499999999999 241.3 124.85499999999999 Z" stroke-linecap="round" />
</g>
		<g transform="matrix(1.87 0 0 1.87 73.73 -69.54)"  >
<path style="stroke: rgb(0,0,0); stroke-width: 1; stroke-dasharray: none; stroke-linecap: butt; stroke-dashoffset: 0; stroke-linejoin: miter; stroke-miterlimit: 4; fill: rgb(33,23,21); fill-rule: nonzero; opacity: 1;" vector-effect="non-scaling-stroke"  transform=" translate(-253.89, -112.41)" d="M 251.759 114.414 L 256.024 114.414 C 256.5530598153802 114.40731478115035 257.05930575295247 114.19751271649875 257.438 113.828 C 258.00981583115515 113.25601149125464 258.18084381201527 112.39592676776132 257.8713559562243 111.64869088397741 C 257.5618681004333 110.9014550001935 256.8327917958737 110.4141726960275 256.024 110.414 L 251.75900000000001 110.414 C 251.230142119463 110.42072320347202 250.72402405047936 110.63011434233725 250.34500000000003 110.999 C 249.77246878028484 111.57089456612263 249.60098573472555 112.43144382290734 249.91056438109845 113.17911785216012 C 250.22014302747135 113.9267918814129 250.94976867430694 114.41423200465549 251.75900000000001 114.414 Z" stroke-linecap="round" />
</g>
		<g transform="matrix(1.87 0 0 1.87 -176.01 -20.99)"  >
<path style="stroke: rgb(0,0,0); stroke-width: 1; stroke-dasharray: none; stroke-linecap: butt; stroke-dashoffset: 0; stroke-linejoin: miter; stroke-miterlimit: 4; fill: rgb(237,155,64); fill-rule: nonzero; opacity: 1;" vector-effect="non-scaling-stroke"  transform=" translate(-120.04, -138.44)" d="M 211.2 274.873 L 211.2 3.612 C 188.123 3.612 154.98999999999998 2.7510000000000003 120.04199999999999 2.7510000000000003 C 91.514 2.751 56.2 2 29.486 2 L 29.486 3.327 C 29.464000000000002 27.857 28.886 87.282 28.886 105.014 C 28.886 146.7 29.308 212.875 29.31 273.39799999999997" stroke-linecap="round" />
</g>
		<g transform="matrix(1.87 0 0 1.87 -176.02 -7.91)"  >
<path style="stroke: rgb(0,0,0); stroke-width: 1; stroke-dasharray: none; stroke-linecap: butt; stroke-dashoffset: 0; stroke-linejoin: miter; stroke-miterlimit: 4; fill: rgb(237,155,64); fill-rule: nonzero; opacity: 1;" vector-effect="non-scaling-stroke"  transform=" translate(-120.04, -145.45)" d="M 198.6 275.741 L 198.6 16.488 C 179.447 16.488 149.048 15.773 120.041 15.773 C 96.36 15.773 64.14699999999999 15.15 41.979 15.15 L 41.979 16.25 C 41.961 36.61 41.479 91.385 41.479 106.103 C 41.479 140.703 41.829 224.28300000000002 41.830999999999996 274.517" stroke-linecap="round" />
</g>
		<g transform="matrix(1.87 0 0 1.87 -176.02 -7.97)"  >
<path style="stroke: rgb(0,0,0); stroke-width: 1; stroke-dasharray: none; stroke-linecap: butt; stroke-dashoffset: 0; stroke-linejoin: miter; stroke-miterlimit: 4; fill: rgb(33,23,21); fill-rule: nonzero; opacity: 1;" vector-effect="non-scaling-stroke"  transform=" translate(-120.04, -145.41)" d="M 200.6 275.741 L 200.6 16.488 C 200.58389235220596 15.390171723992445 199.69782827600756 14.504107647794031 198.6 14.488 C 178.2 14.488 157.808 14.007 137.41199999999998 13.847 C 116.42699999999998 13.682 95.44399999999997 13.628 74.45899999999997 13.394 C 63.632999999999974 13.274000000000001 52.805999999999976 13.152000000000001 41.97899999999998 13.15 C 40.88095085942456 13.165585130163452 39.99458513016343 14.051950859424585 39.97899999999998 15.15 C 39.97899999999998 30.682000000000002 39.83899999999998 46.215 39.73399999999998 61.75 C 39.63399999999998 76.241 39.49799999999998 90.73400000000001 39.48199999999998 105.226 C 39.46599999999998 120.203 39.522999999999975 135.18099999999998 39.561999999999976 150.159 Q 39.64099999999998 180.259 39.726999999999975 210.35899999999998 Q 39.80099999999997 239.39399999999998 39.82699999999998 268.429 Q 39.82699999999998 271.474 39.82699999999998 274.52 C 39.82699999999998 277.09299999999996 43.82699999999998 277.09799999999996 43.82699999999998 274.52 Q 43.82699999999998 246.19 43.738999999999976 217.85999999999999 Q 43.66399999999997 187.43699999999998 43.57399999999998 157.015 Q 43.507999999999974 133.015 43.473999999999975 109.01499999999999 C 43.467999999999975 95.42699999999999 43.589999999999975 81.83899999999998 43.681999999999974 68.25099999999998 C 43.790999999999976 52.03599999999997 43.921999999999976 35.81999999999998 43.96399999999997 19.604999999999976 Q 43.96999999999997 17.379999999999974 43.97099999999997 15.155999999999976 L 41.97099999999997 17.155999999999977 C 61.85099999999997 17.155999999999977 81.73099999999997 17.516999999999978 101.60999999999997 17.686999999999976 C 123.37999999999997 17.873999999999977 145.14799999999997 17.899999999999977 166.91799999999998 18.186999999999976 C 177.47499999999997 18.326999999999977 188.034 18.486999999999977 198.59199999999998 18.492999999999977 L 196.59199999999998 16.492999999999977 L 196.59199999999998 275.741 C 196.59199999999998 278.315 200.59199999999998 278.31899999999996 200.59199999999998 275.741 Z" stroke-linecap="round" />
</g>
		<g transform="matrix(1.87 0 0 1.87 -176.01 -21.05)"  >
<path style="stroke: rgb(0,0,0); stroke-width: 1; stroke-dasharray: none; stroke-linecap: butt; stroke-dashoffset: 0; stroke-linejoin: miter; stroke-miterlimit: 4; fill: rgb(33,23,21); fill-rule: nonzero; opacity: 1;" vector-effect="non-scaling-stroke"  transform=" translate(-120.05, -138.4)" d="M 213.2 274.873 L 213.2 3.612 C 213.18389235220596 2.5141717239924466 212.29782827600755 1.6281076477940315 211.2 1.612 C 188.21599999999998 1.612 165.23499999999999 1.0510000000000002 142.253 0.8530000000000001 C 117.518 0.641 92.783 0.6 68.045 0.3 C 55.193 0.152 42.34 0 29.486 0 C 28.387950859424585 0.0155851301634511 27.501585130163452 0.9019508594245844 27.486 2.0000000000000004 C 27.486 16.413 27.364 30.826 27.261 45.238 Q 27.096 68.51599999999999 26.936999999999998 91.794 C 26.857 105.95 26.895999999999997 120.106 26.936999999999998 134.262 Q 27.023999999999997 165.54 27.151999999999997 196.816 Q 27.269 230.849 27.31 264.884 Q 27.31 269.141 27.31 273.398 C 27.31 275.97200000000004 31.31 275.976 31.31 273.398 Q 31.31 239.20500000000004 31.177 205.014 Q 31.072 173.13600000000002 30.955 141.25900000000001 C 30.907999999999998 126.22500000000001 30.840999999999998 111.19000000000001 30.912999999999997 96.15900000000002 Q 31.019 73.75900000000001 31.212999999999997 51.35200000000002 C 31.320999999999998 36.45700000000002 31.439999999999998 21.56200000000002 31.476 6.667000000000016 Q 31.482 4.336000000000016 31.482 2.0040000000000155 L 29.482 4.0040000000000155 C 53.024 4.0040000000000155 76.564 4.461000000000015 100.104 4.660000000000015 C 125.258 4.872000000000015 150.404 4.910000000000015 175.56099999999998 5.260000000000015 C 187.43999999999997 5.427000000000015 199.319 5.612000000000015 211.19899999999998 5.614000000000015 L 209.19899999999998 3.614000000000015 L 209.19899999999998 274.873 C 209.19899999999998 277.44599999999997 213.19899999999998 277.45099999999996 213.19899999999998 274.873 Z" stroke-linecap="round" />
</g>
		<g transform="matrix(1.87 0 0 1.87 0 235.78)"  >
<path style="stroke: rgb(0,0,0); stroke-width: 1; stroke-dasharray: none; stroke-linecap: butt; stroke-dashoffset: 0; stroke-linejoin: miter; stroke-miterlimit: 4; fill: rgb(33,23,21); fill-rule: nonzero; opacity: 1;" vector-effect="non-scaling-stroke"  transform=" translate(-214.37, -276.05)" d="M 1.932 277.756 C 25.06 277.756 48.189 277.839 71.31700000000001 277.847 Q 81.98700000000001 277.847 92.65700000000001 277.86699999999996 Q 109.757 277.88599999999997 126.86600000000001 277.912 Q 148.73000000000002 277.94199999999995 170.592 277.97499999999997 L 220.019 278.049 L 271.227 278.12699999999995 Q 296.12699999999995 278.16599999999994 321.02099999999996 278.20199999999994 L 365.48099999999994 278.26699999999994 Q 383.13499999999993 278.29099999999994 400.78599999999994 278.31399999999996 Q 412.1859999999999 278.32699999999994 423.59399999999994 278.33599999999996 L 426.8179999999999 278.33599999999996 C 429.39199999999994 278.33599999999996 429.3959999999999 274.33599999999996 426.8179999999999 274.33599999999996 Q 417.2439999999999 274.33599999999996 407.66799999999995 274.32099999999997 Q 391.30199999999996 274.303 374.93399999999997 274.279 Q 353.724 274.251 332.513 274.218 L 283.68199999999996 274.14500000000004 L 232.30199999999996 274.06700000000006 L 182.27899999999997 273.9920000000001 L 136.82099999999997 273.92500000000007 Q 118.33499999999997 273.8980000000001 99.84799999999997 273.87500000000006 Q 87.48699999999997 273.85900000000004 75.12499999999997 273.84800000000007 Q 47.95699999999997 273.82900000000006 20.78699999999997 273.7730000000001 Q 11.359999999999971 273.7560000000001 1.9319999999999702 273.7550000000001 C -0.6420000000000297 273.7550000000001 -0.6460000000000297 277.7550000000001 1.9319999999999702 277.7550000000001 Z" stroke-linecap="round" />
</g>
		<g transform="matrix(1.87 0 0 1.87 -77.68 -19.01)"  >
<path style="stroke: rgb(0,0,0); stroke-width: 1; stroke-dasharray: none; stroke-linecap: butt; stroke-dashoffset: 0; stroke-linejoin: miter; stroke-miterlimit: 4; fill: rgb(237,155,64); fill-rule: nonzero; opacity: 1;" vector-effect="non-scaling-stroke"  transform=" translate(-172.74, -139.5)" d="M 172.689 131.856 C 167.745 131.856 164.93099999999998 135.016 164.93099999999998 139.29 C 164.93099999999998 143.232 166.85699999999997 147.13899999999998 173.21399999999997 147.13899999999998 C 177.93399999999997 147.13899999999998 180.55599999999998 144.218 180.55599999999998 139.498 C 180.556 135.078 177.484 131.856 172.689 131.856 Z" stroke-linecap="round" />
</g>
		<g transform="matrix(1.87 0 0 1.87 -77.7 -18.96)"  >
<path style="stroke: rgb(0,0,0); stroke-width: 1; stroke-dasharray: none; stroke-linecap: butt; stroke-dashoffset: 0; stroke-linejoin: miter; stroke-miterlimit: 4; fill: rgb(33,23,21); fill-rule: nonzero; opacity: 1;" vector-effect="non-scaling-stroke"  transform=" translate(-172.73, -139.52)" d="M 172.689 129.856 C 168.418 129.899 164.489 132.173 163.304 136.451 C 162.364 139.837 163.082 144.117 165.729 146.578 C 168.80800000000002 149.441 174.08100000000002 149.918 177.811 148.14600000000002 C 181.467 146.40900000000002 182.941 142.08700000000002 182.473 138.269 C 182.25317939630145 135.97772491832376 181.19350780732915 133.84876455284893 179.49800000000002 132.292 C 177.59393590754746 130.68967185208234 175.177365265058 129.82511522334033 172.68900000000002 129.856 C 170.115 129.828 170.11300000000003 133.828 172.68900000000002 133.856 C 172.91400000000002 133.856 173.13800000000003 133.863 173.36200000000002 133.878 C 173.35000000000002 133.878 174.062 133.95399999999998 173.69000000000003 133.90099999999998 C 174.0965108131468 133.96242769823968 174.49769423111238 134.05503420388672 174.89000000000001 134.17799999999997 C 175.01700000000002 134.21699999999996 175.14100000000002 134.26399999999998 175.26700000000002 134.30499999999998 C 175.83100000000002 134.48999999999998 174.991 134.134 175.50700000000003 134.40499999999997 C 175.90092256752513 134.60205165265407 176.27875211648416 134.82975246932762 176.63700000000003 135.08599999999998 C 176.35500000000002 134.874 176.67100000000002 135.11999999999998 176.73700000000002 135.18099999999998 C 176.848 135.28699999999998 176.96300000000002 135.38799999999998 177.07000000000002 135.498 C 177.199 135.629 177.31900000000002 135.766 177.43900000000002 135.905 C 177.17200000000003 135.594 177.53900000000002 136.053 177.56500000000003 136.088 C 177.73700000000002 136.34699999999998 177.87700000000004 136.619 178.02700000000002 136.888 C 178.304 137.388 177.935 136.554 178.122 137.101 C 178.205 137.343 178.287 137.583 178.352 137.832 C 178.40200000000002 138.022 178.437 138.213 178.48 138.405 C 178.61599999999999 139.01 178.469 138.197 178.50799999999998 138.567 C 178.54549223639978 138.94711602150957 178.5605183592917 139.3291134568068 178.55299999999997 139.711 Q 178.54699999999997 140.02900000000002 178.52499999999998 140.345 C 178.52499999999998 140.361 178.45099999999996 141.033 178.50799999999998 140.62199999999999 C 178.4537539398708 141.00376163313328 178.3732293488385 141.381325068264 178.26699999999997 141.75199999999998 C 178.21599999999998 141.92899999999997 178.15199999999996 142.10099999999997 178.09799999999996 142.278 C 177.93199999999996 142.815 178.27899999999997 141.97 178.02399999999994 142.459 C 177.89099999999993 142.716 177.76099999999994 142.971 177.60299999999995 143.214 C 177.56599999999995 143.271 177.22599999999994 143.705 177.51599999999996 143.357 C 177.40899999999996 143.48499999999999 177.29899999999995 143.612 177.18199999999996 143.732 C 177.06499999999997 143.852 176.93799999999996 143.961 176.81699999999995 144.077 C 176.49799999999996 144.384 177.03599999999994 143.963 176.68899999999996 144.177 C 176.38899999999995 144.35999999999999 176.10399999999996 144.535 175.78899999999996 144.689 C 176.18899999999996 144.494 175.66099999999997 144.73499999999999 175.60499999999996 144.755 Q 175.34399999999997 144.845 175.07499999999996 144.916 C 174.95299999999995 144.94899999999998 174.82999999999996 144.978 174.70699999999997 145.005 C 174.67999999999998 145.005 174.05399999999997 145.121 174.46399999999997 145.063 C 173.96133214479914 145.12663618449102 173.45441517540814 145.15037701880948 172.94799999999998 145.134 C 171.53883223252882 145.1740435917971 170.14862800222224 144.8018164091325 168.94799999999998 144.063 C 168.89 144.02499999999998 168.46599999999998 143.672 168.80399999999997 143.963 C 168.70399999999998 143.87199999999999 168.59499999999997 143.78199999999998 168.49399999999997 143.686 C 168.39299999999997 143.59000000000003 167.83999999999997 142.931 168.10899999999998 143.299 C 167.91964997187276 143.04147576239714 167.74888449742508 142.77079076376185 167.59799999999998 142.489 C 167.54799999999997 142.39600000000002 167.505 142.299 167.45499999999998 142.205 C 167.362 141.99900000000002 167.36599999999999 142.013 167.46599999999998 142.245 Q 167.408 142.096 167.355 141.945 C 167.24930604163137 141.64140101010867 167.1614889343051 141.33187074968495 167.09199999999998 141.018 C 167.063 140.886 166.94799999999998 140.084 167.00099999999998 140.59 C 166.93267921807828 139.88978803227147 166.9193049895531 139.18530054470753 166.96099999999998 138.483 C 166.98999999999998 137.875 166.868 138.83 166.98999999999998 138.244 C 167.04099999999997 137.99699999999999 167.08999999999997 137.751 167.15699999999998 137.508 C 167.206 137.329 167.26999999999998 137.156 167.325 136.979 C 167.458 136.543 167.21099999999998 137.15200000000002 167.403 136.786 C 167.58825605496625 136.41263518604492 167.80223293480017 136.05422391232312 168.04299999999998 135.714 C 167.78799999999998 136.06 168.14299999999997 135.607 168.18099999999998 135.57 Q 168.36299999999997 135.37 168.55899999999997 135.192 C 168.59099999999998 135.162 169.04599999999996 134.792 168.70899999999997 135.047 C 168.90555834190775 134.90161586351215 169.11058675706437 134.76804686341012 169.32299999999998 134.647 C 169.486 134.552 169.65399999999997 134.47 169.82299999999998 134.384 C 170.03699999999998 134.284 170.05399999999997 134.278 169.87499999999997 134.357 C 169.96699999999998 134.322 170.05899999999997 134.288 170.15199999999996 134.257 C 170.96666840333074 133.97411687344913 171.82473396049315 133.83669098934345 172.68699999999995 133.851 C 175.262 133.83 175.268 129.83 172.689 129.856 Z" stroke-linecap="round" />
</g>
		<g transform="matrix(1.87 0 0 1.87 313.93 260.71)"  >
<path style="stroke: rgb(0,0,0); stroke-width: 1; stroke-dasharray: none; stroke-linecap: butt; stroke-dashoffset: 0; stroke-linejoin: miter; stroke-miterlimit: 4; fill: rgb(100,93,92); fill-rule: nonzero; opacity: 1;" vector-effect="non-scaling-stroke"  transform=" translate(-382.62, -289.41)" d="M 387.485 295.8 C 389.616 295.233 391.728 294.571 393.79400000000004 293.91 C 394.5400789845171 293.721559527233 395.2435559243413 293.3930666773778 395.867 292.942 C 396.50177473457956 292.37127040678655 396.9481563719643 291.62114001458775 397.147 290.791 C 398.024 287.635 396.54699999999997 284.354 395.08299999999997 281.422 C 391.3629527827609 284.9127038673825 386.049920963279 286.1266743032583 381.183 284.598 C 380.9157449317079 284.5211992622991 380.63167297803403 284.5257249184238 380.367 284.611 C 375.367 285.29699999999997 372.062 287.57599999999996 368.945 291.544 C 368.162 292.544 367.455 293.901 368.06 295.015 C 368.5382328450138 295.69911420391367 369.25720776640077 296.17735932052426 370.073 296.354 C 375.7 298.182 381.67 297.347 387.485 295.8 Z" stroke-linecap="round" />
</g>
		<g transform="matrix(1.87 0 0 1.87 208.92 69.8)"  >
<path style="stroke: rgb(0,0,0); stroke-width: 1; stroke-dasharray: none; stroke-linecap: butt; stroke-dashoffset: 0; stroke-linejoin: miter; stroke-miterlimit: 4; fill: rgb(255,255,255); fill-rule: nonzero; opacity: 1;" vector-effect="non-scaling-stroke"  transform=" translate(-326.34, -187.09)" d="M 338.481 157.287 C 337.965 160.85 337.139 174.187 336.622 177.75400000000002 C 336.5169169667896 178.79174926927183 336.2768913300788 179.81135396975358 335.908 180.787 C 335.52491584214283 181.59594121821826 335.0497739218111 182.35798027264863 334.492 183.058 C 330.6 188.32399999999998 325.492 194.797 321.252 199.474 C 320.59000000000003 200.207 314.91700000000003 200.474 313.565 201.009 C 310.721797685118 202.18164339434824 308.1375620845664 203.9031078982791 305.96 206.075 C 302.68899999999996 209.23299999999998 301.75399999999996 214.27499999999998 301.512 218.975 C 301.25600000000003 223.946 321.806 216.28799999999998 330.293 208.975 C 335.493 204.49599999999998 347.141 192.483 349.073 186.47 C 351.524 178.844 350.63899999999995 171.548 351.179 163.555 C 351.179 155.26600000000002 338.479 149.53900000000002 338.479 157.28900000000002" stroke-linecap="round" />
</g>
		<g transform="matrix(1.87 0 0 1.87 139 191.15)"  >
<path style="stroke: rgb(0,0,0); stroke-width: 1; stroke-dasharray: none; stroke-linecap: butt; stroke-dashoffset: 0; stroke-linejoin: miter; stroke-miterlimit: 4; fill: rgb(246,195,133); fill-rule: nonzero; opacity: 1;" vector-effect="non-scaling-stroke"  transform=" translate(-288.87, -252.13)" d="M 340.425 289.028 C 340.425 273.79200000000003 340.136 229.06600000000003 340.136 214.85000000000002 L 237.313 214.85000000000002 C 237.313 229.06600000000003 237.892 274.172 237.892 289.409 C 260.214 289.409 307.152 289.028 340.425 289.028" stroke-linecap="round" />
</g>
		<g transform="matrix(1.87 0 0 1.87 139 132.04)"  >
<path style="stroke: rgb(0,0,0); stroke-width: 1; stroke-dasharray: none; stroke-linecap: butt; stroke-dashoffset: 0; stroke-linejoin: miter; stroke-miterlimit: 4; fill: rgb(137,112,93); fill-rule: nonzero; opacity: 1;" vector-effect="non-scaling-stroke"  transform=" translate(-288.87, -220.45)" d="M 277.792 214.916 L 277.792 225.9 C 278.921 225.9 285.01 225.942 286.72099999999995 225.942 C 288.1209999999999 225.942 296.46199999999993 225.979 297.76899999999995 225.979 C 297.76899999999995 225.95800000000003 299.91799999999995 225.936 299.91799999999995 225.91400000000002 C 299.91799999999995 224.71400000000003 299.94699999999995 221.484 299.94699999999995 220.614 C 299.94699999999995 218.574 299.92599999999993 217.94400000000002 299.92599999999993 214.982" stroke-linecap="round" />
</g>
		<g transform="matrix(1.87 0 0 1.87 276.53 5.19)"  >
<path style="stroke: rgb(0,0,0); stroke-width: 1; stroke-dasharray: none; stroke-linecap: butt; stroke-dashoffset: 0; stroke-linejoin: miter; stroke-miterlimit: 4; fill: rgb(62,99,158); fill-rule: nonzero; opacity: 1;" vector-effect="non-scaling-stroke"  transform=" translate(-362.58, -152.47)" d="M 347.313 174.425 C 345.0384818267624 171.43244501234858 343.1164655373919 168.18770033388972 341.585 164.75500000000002 C 340.48499999999996 162.55500000000004 334.712 147.83 334.294 146.27100000000002 C 332.673 140.217 332.65 138.15800000000002 332.651 128.07100000000003 C 334.4799439504574 129.35108837284778 336.3966751918189 130.5009266227649 338.387 131.512 C 338.996 131.83800000000002 339.552 132.13300000000004 340.007 132.38200000000003 C 344.307 128.71900000000002 347.801 118.37600000000003 347.546 116.22300000000004 L 347.512 115.94000000000004 L 347.546 115.94700000000005 C 349.54831999585167 116.520616803647 351.4652120820795 117.35866857187153 353.246 118.43900000000005 C 355.06522904300994 119.42715483287026 356.7590510615917 120.63045673863778 358.291 122.02300000000004 C 362.0499913213439 125.51080560685094 365.38801549708995 129.42642274524113 368.237 133.69000000000005 C 374.71500000000003 142.90700000000007 383.966 157.74800000000005 389.891 170.69000000000005 C 391.891 173.69000000000005 393.12 177.17500000000007 392.19100000000003 179.05600000000004 C 386.324 181.36500000000004 368.60900000000004 187.81500000000005 361.87100000000004 188.99400000000003 Z" stroke-linecap="round" />
</g>
		<g transform="matrix(1.87 0 0 1.87 301.25 153.22)"  >
<path style="stroke: rgb(0,0,0); stroke-width: 1; stroke-dasharray: none; stroke-linecap: butt; stroke-dashoffset: 0; stroke-linejoin: miter; stroke-miterlimit: 4; fill: rgb(255,255,255); fill-rule: nonzero; opacity: 1;" vector-effect="non-scaling-stroke"  transform=" translate(-375.83, -231.8)" d="M 380.82 284.547 C 375.754 276.375 366.731 257.211 361.664 249.03900000000002 C 359.56399999999996 245.65 357.421 242.157 356.714 238.233 C 356.048 234.543 356.705 230.757 357.361 227.065 C 359.061 217.522 360.18 198.538 361.875 188.995 C 368.613 187.816 386.328 181.366 392.195 179.05700000000002 C 399.776 193.20600000000002 389.46999999999997 213.05100000000002 384.288 227.26600000000002 C 383.273 230.05100000000002 382.302 232.98800000000003 382.72 235.92200000000003 C 383.103 238.60700000000003 385.391 242.78000000000003 386.72 245.14000000000001 C 391.87 254.25500000000002 394.50800000000004 272.64 395.22 283.089" stroke-linecap="round" />
</g>
		<g transform="matrix(1.87 0 0 1.87 139 191.16)"  >
<path style="stroke: rgb(0,0,0); stroke-width: 1; stroke-dasharray: none; stroke-linecap: butt; stroke-dashoffset: 0; stroke-linejoin: miter; stroke-miterlimit: 4; fill: rgb(33,23,21); fill-rule: nonzero; opacity: 1;" vector-effect="non-scaling-stroke"  transform=" translate(-288.87, -252.13)" d="M 342.425 289.028 C 342.425 279.778 342.37100000000004 270.528 342.325 261.276 Q 342.246 244.625 342.169 227.976 Q 342.142 221.415 342.133 214.852 C 342.1174148698365 213.75395085942458 341.2310491405754 212.86758513016346 340.133 212.852 L 237.313 212.852 C 236.21517172399243 212.86810764779403 235.32910764779402 213.75417172399244 235.313 214.852 C 235.313 223.873 235.423 232.894 235.51299999999998 241.915 Q 235.67299999999997 258.807 235.82599999999996 275.698 C 235.86199999999997 280.269 235.89699999999996 284.84 235.89699999999996 289.411 C 235.913107647794 290.50882827600753 236.7991717239924 291.39489235220594 237.89699999999996 291.411 C 249.59699999999995 291.411 261.28799999999995 291.342 272.98299999999995 291.282 Q 294.94599999999997 291.171 316.90999999999997 291.082 Q 328.66999999999996 291.04 340.42999999999995 291.034 C 343.00399999999996 291.034 343.00899999999996 287.034 340.42999999999995 287.034 Q 318.97999999999996 287.034 297.53 287.163 Q 276.657 287.26300000000003 255.78499999999997 287.368 Q 246.84199999999996 287.405 237.89899999999997 287.415 L 239.89899999999997 289.415 C 239.89899999999997 280.151 239.79099999999997 270.887 239.70399999999998 261.624 Q 239.54699999999997 244.83500000000004 239.39199999999997 228.04400000000004 C 239.35699999999997 223.64400000000003 239.32099999999997 219.25200000000004 239.31999999999996 214.85600000000005 L 237.31999999999996 216.85600000000005 L 340.136 216.85600000000005 L 338.136 214.85600000000005 C 338.136 223.86400000000006 338.19100000000003 232.87200000000004 338.23600000000005 241.88000000000005 Q 338.31500000000005 258.63400000000007 338.39200000000005 275.3860000000001 Q 338.41900000000004 282.21100000000007 338.4270000000001 289.0340000000001 C 338.4270000000001 291.6080000000001 342.4270000000001 291.6130000000001 342.4270000000001 289.0340000000001 Z" stroke-linecap="round" />
</g>
		<g transform="matrix(1.87 0 0 1.87 138.99 132.1)"  >
<path style="stroke: rgb(0,0,0); stroke-width: 1; stroke-dasharray: none; stroke-linecap: butt; stroke-dashoffset: 0; stroke-linejoin: miter; stroke-miterlimit: 4; fill: rgb(33,23,21); fill-rule: nonzero; opacity: 1;" vector-effect="non-scaling-stroke"  transform=" translate(-288.87, -220.48)" d="M 275.8 214.916 L 275.8 225.9 C 275.81610764779407 226.99782827600757 276.7021717239925 227.88389235220598 277.8 227.9 C 284.1 227.9 290.40000000000003 227.954 296.695 227.976 C 297.238 227.976 297.772 227.915 298.30899999999997 227.907 C 297.36199999999997 227.92000000000002 298.65599999999995 227.95100000000002 298.95899999999995 227.94500000000002 C 299.46075341106075 227.94775602467448 299.9620527285956 227.91433607017214 300.45899999999995 227.84500000000003 C 301.3242753535509 227.60270859620005 301.9236251004088 226.8155517079561 301.92699999999996 225.91700000000003 Q 301.92699999999996 220.45300000000003 301.936 214.98700000000002 C 301.936 212.41400000000002 297.936 212.40900000000002 297.936 214.98700000000002 Q 297.936 220.45100000000002 297.92699999999996 225.91700000000003 L 299.395 223.98800000000003 C 300.265 223.84600000000003 299.28299999999996 223.94100000000003 298.96 223.94800000000004 C 298.577 223.95600000000005 298.188 223.94800000000004 297.806 223.97800000000004 C 296.683 224.07000000000005 298.094 224.02900000000002 297.53 223.97800000000004 C 297.33 223.96100000000004 297.12199999999996 223.97800000000004 296.921 223.97800000000004 Q 294.77299999999997 223.97200000000004 292.621 223.96200000000005 L 281.168 223.91400000000004 C 280.045 223.91400000000004 278.922 223.90200000000004 277.799 223.90200000000004 L 279.799 225.90200000000004 L 279.799 214.916 C 279.799 212.34199999999998 275.799 212.338 275.799 214.916 Z" stroke-linecap="round" />
</g>
		<g transform="matrix(1.87 0 0 1.87 234.35 3.24)"  >
<path style="stroke: rgb(0,0,0); stroke-width: 1; stroke-dasharray: none; stroke-linecap: butt; stroke-dashoffset: 0; stroke-linejoin: miter; stroke-miterlimit: 4; fill: rgb(33,23,21); fill-rule: nonzero; opacity: 1;" vector-effect="non-scaling-stroke"  transform=" translate(-339.97, -151.42)" d="M 330.651 128.355 C 330.651 134.87599999999998 330.48900000000003 141.595 332.71000000000004 147.834 C 334.677 153.357 336.87000000000006 158.834 339.17 164.222 C 340.90775292569725 168.36577550780171 343.16915626650155 172.26988051747975 345.899 175.839 C 346.682599912016 176.614407719768 347.94440008798404 176.614407719768 348.728 175.839 C 349.48089248234686 175.04627759543328 349.48089248234686 173.8027224045667 348.728 173.01 C 346.3703176803975 169.85919930462578 344.4070603627308 166.43172681333152 342.882 162.804 C 342.482 161.889 342.118 160.994 341.627 159.785 Q 340.737 157.595 339.87100000000004 155.395 C 337.97700000000003 150.595 335.92 145.857 335.10200000000003 140.733 C 334.49100000000004 136.91 334.651 132.41 334.651 128.35500000000002 C 334.651 125.78100000000002 330.651 125.77700000000002 330.651 128.35500000000002 Z" stroke-linecap="round" />
</g>
		<g transform="matrix(1.87 0 0 1.87 303.5 64.08)"  >
<path style="stroke: rgb(0,0,0); stroke-width: 1; stroke-dasharray: none; stroke-linecap: butt; stroke-dashoffset: 0; stroke-linejoin: miter; stroke-miterlimit: 4; fill: rgb(33,23,21); fill-rule: nonzero; opacity: 1;" vector-effect="non-scaling-stroke"  transform=" translate(-377.03, -184.02)" d="M 391.664 177.128 C 386.764 179.051 381.808 180.82799999999997 376.83 182.521 C 371.776 184.24499999999998 366.615 186.12099999999998 361.344 187.06599999999997 C 360.2835933152191 187.36638969399033 359.6603291969925 188.46199897610157 359.944 189.527 C 360.256410571131 190.57743151294568 361.34133694218264 191.19486928508886 362.404 190.927 C 367.676 189.982 372.836 188.106 377.89 186.381 C 382.868 184.681 387.828 182.911 392.724 180.988 C 393.7696572940572 180.669598655234 394.38428045853715 179.58961795193352 394.12399999999997 178.528 C 393.82543881607984 177.46665203926645 392.72897549723655 176.84264852447754 391.664 177.128 Z" stroke-linecap="round" />
</g>
		<g transform="matrix(1.87 0 0 1.87 226 88.46)"  >
<path style="stroke: rgb(0,0,0); stroke-width: 1; stroke-dasharray: none; stroke-linecap: butt; stroke-dashoffset: 0; stroke-linejoin: miter; stroke-miterlimit: 4; fill: rgb(255,255,255); fill-rule: nonzero; opacity: 1;" vector-effect="non-scaling-stroke"  transform=" translate(-335.5, -197.09)" d="M 363.255 165.076 C 362.978 170.576 362.455 177.753 361.689 183.209 C 361.5355194975267 184.94897307888567 361.0864143273515 186.65002654724518 360.36100000000005 188.239 C 359.5200204460133 189.6639206216137 358.46044087498626 190.94790159860662 357.22100000000006 192.044 C 349.19500000000005 199.90200000000002 340.91400000000004 207.57000000000002 333.97100000000006 216.4 C 333.4080000000001 218.529 333.17100000000005 220.866 331.9460000000001 222.06 C 327.5930000000001 226.306 321.78600000000006 229.86 315.7700000000001 228.978 C 314.564171286708 228.87573777624345 313.4281741634875 228.3694015894978 312.5460000000001 227.541 C 311.6699727857781 226.66196445684184 311.5522890866864 225.2805518599772 312.2670000000001 224.266 C 310.4210000000001 224.858 307.7150000000001 224.166 307.73700000000014 222.22799999999998 C 307.7500000000001 221.07 308.77200000000016 220.212 309.7040000000001 219.528 L 315.4970000000001 215.245 C 314.12100000000015 216.612 311.4520000000001 215.419 311.06400000000014 213.519 C 310.67600000000016 211.619 312.02500000000015 209.708 313.7430000000001 208.809 C 315.5282425237554 208.03548869131305 317.4587342638717 207.65423277090144 319.4040000000001 207.691 C 321.19400000000013 207.598 323.3040000000001 208.42600000000002 326.4520000000001 206.949 C 331.5087502259286 198.99603649427686 337.03766500645645 191.35333113811697 343.0090000000001 184.06200000000007 C 344.40118526519774 182.25821217727045 345.59663834644374 180.31082380123064 346.5750000000001 178.25300000000001 C 348.3000000000001 174.58100000000002 347.6090000000001 169.13400000000001 347.4450000000001 165.08" stroke-linecap="round" />
</g>
		<g transform="matrix(1.87 0 0 1.87 226.03 88.55)"  >
<path style="stroke: rgb(0,0,0); stroke-width: 1; stroke-dasharray: none; stroke-linecap: butt; stroke-dashoffset: 0; stroke-linejoin: miter; stroke-miterlimit: 4; fill: rgb(33,23,21); fill-rule: nonzero; opacity: 1;" vector-effect="non-scaling-stroke"  transform=" translate(-335.51, -197.14)" d="M 361.255 165.076 C 360.966 170.749 360.581 176.43599999999998 359.842 182.07 C 359.47299999999996 184.892 358.981 187.327 356.976 189.45499999999998 C 354.805 191.755 352.445 193.89899999999997 350.176 196.106 C 345.76599999999996 200.398 341.38599999999997 204.731 337.296 209.333 Q 335.764 211.057 334.296 212.833 Q 333.561 213.721 332.844 214.625 C 332.2840932920696 215.34160903253002 331.90938230760327 216.18513806813897 331.753 217.081 C 331.6046958899159 218.18551731625942 331.2876682963391 219.26071302724108 330.813 220.26899999999998 C 329.98228280132986 221.34830842066796 328.9750937995166 222.2794257456071 327.834 223.02299999999997 C 325.44515921778816 224.98005663306554 322.61849686218966 226.33043204654237 319.595 226.95899999999997 C 318.855 227.08699999999996 312.58200000000005 227.23499999999999 313.995 225.27799999999996 C 315.049 223.81699999999995 313.31 221.89899999999997 311.736 222.33999999999997 C 311.1493769072443 222.561089049181 310.49964240096915 222.54458557745895 309.925 222.29399999999998 C 310.02500000000003 222.35899999999998 309.713 222.17999999999998 309.738 222.236 C 309.708 222.17 310.153 221.72799999999998 310.286 221.60899999999998 C 312.186 219.902 314.45 218.49099999999999 316.507 216.96999999999997 L 314.083 213.82899999999998 C 313.90200000000004 213.986 313.36100000000005 213.59699999999998 313.245 213.46999999999997 C 312.8986853453368 212.95284244206505 312.939580884287 212.26825112003905 313.345 211.79599999999996 C 314.478 209.95099999999996 317.059 209.81399999999996 318.99300000000005 209.71099999999996 C 320.85800000000006 209.61099999999996 322.66100000000006 209.97699999999995 324.52700000000004 209.65299999999996 C 325.8234591065232 209.5422807277348 327.05021864094454 209.01862965789897 328.02700000000004 208.15899999999996 C 328.8202445693921 207.0823222537195 329.54597015250147 205.95749769600565 330.20000000000005 204.79099999999997 C 333.05500000000006 200.41999999999996 336.11500000000007 196.19099999999997 339.285 192.03999999999996 C 342.33200000000005 188.05299999999997 345.81300000000005 184.29399999999995 348.06 179.76899999999995 C 350.342 175.17399999999995 349.665 170.02299999999994 349.45 165.07799999999995 C 349.339 162.51399999999995 345.33799999999997 162.49999999999994 345.45 165.07799999999995 C 345.602 168.56199999999995 346.15 172.25399999999993 345.34 175.69099999999995 C 344.503 179.22999999999993 341.89799999999997 182.25499999999994 339.702 185.03899999999996 C 334.32840829250523 191.72323018472042 329.3300505812201 198.7006330811844 324.7300000000001 205.93899999999985 L 325.447 205.22099999999998 C 323.206 206.21099999999998 320.922 205.58399999999997 318.576 205.73599999999996 C 315.702 205.92199999999997 312.591 206.44999999999996 310.629 208.77799999999996 C 308.891 210.83899999999997 308.3 213.92799999999997 310.22900000000004 216.08499999999995 C 311.0377952016212 217.05205899574128 312.19898241284574 217.656482716761 313.455064243937 217.7642380554318 C 314.71114607502824 217.87199339410262 315.9583125241207 217.47417481447013 316.92 216.65899999999996 C 318.62 215.19499999999996 316.333 212.15899999999996 314.49600000000004 213.51799999999997 Q 311.79600000000005 215.51799999999997 309.08900000000006 217.51799999999997 C 307.58000000000004 218.63899999999998 305.95300000000003 219.86799999999997 305.77900000000005 221.89699999999996 C 305.45500000000004 225.66399999999996 309.80500000000006 227.04199999999997 312.80800000000005 226.20199999999997 L 310.54900000000004 223.26399999999998 C 308.44100000000003 226.18499999999997 310.925 229.61399999999998 313.83500000000004 230.58599999999998 C 316.90994925897235 231.44485100755207 320.17959218373505 231.29199187017306 323.16100000000006 230.14999999999998 C 326.2402668560201 229.0026137813405 329.08421541610704 227.30275129595017 331.55300000000005 225.134 C 332.81214496376396 224.22121505884124 333.84752177015173 223.03436139471575 334.5810000000001 221.66299999999998 C 335.15831267952433 220.12898626585323 335.6026166823971 218.5481606532222 335.90900000000005 216.938 L 335.39500000000004 217.821 C 340.85109495532095 211.15082822209268 346.7373068721716 204.8443873402913 353.01599999999996 198.94200000000006 Q 355.334 196.686 357.654 194.434 C 359.15749483143816 193.097863705672 360.50809163223846 191.59902658057229 361.681 189.965 C 363.805 186.691 363.881 182.209 364.27099999999996 178.437 C 364.729 173.997 365.037 169.537 365.26399999999995 165.08300000000003 C 365.39599999999996 162.51000000000002 361.3949999999999 162.51700000000002 361.26399999999995 165.08300000000003 Z" stroke-linecap="round" />
</g>
		<g transform="matrix(1.87 0 0 1.87 216.34 52.72)"  >
<path style="stroke: rgb(0,0,0); stroke-width: 1; stroke-dasharray: none; stroke-linecap: butt; stroke-dashoffset: 0; stroke-linejoin: miter; stroke-miterlimit: 4; fill: rgb(33,23,21); fill-rule: nonzero; opacity: 1;" vector-effect="non-scaling-stroke"  transform=" translate(-330.32, -177.94)" d="M 336.553 156.755 C 335.86899999999997 161.59 335.643 166.498 335.243 171.362 C 335.143 172.539 335.043 173.716 334.937 174.893 Q 334.87 175.612 334.79400000000004 176.331 C 334.77000000000004 176.54999999999998 334.744 176.768 334.72100000000006 176.987 C 334.71200000000005 177.071 334.7010000000001 177.154 334.69000000000005 177.238 C 334.6530000000001 177.544 334.74100000000004 176.884 334.70300000000003 177.154 C 334.61886015112856 178.06794623823217 334.4299538955878 178.96919348935577 334.14000000000004 179.84 C 333.7162093368429 180.75074908944657 333.1738412264577 181.60145666494225 332.52700000000004 182.37 Q 330.84200000000004 184.644 329.107 186.87900000000002 C 326.39700000000005 190.365 323.61300000000006 193.79700000000003 320.69100000000003 197.108 C 318.99100000000004 199.031 321.81100000000004 201.871 323.519 199.936 C 326.148 196.958 328.663 193.881 331.119 190.756 Q 333.019 188.333 334.875 185.872 C 336.2234141495898 184.33725687739496 337.30262490357677 182.58556799380898 338.067 180.691 C 338.6691348981488 178.28856625942666 339.00812907093024 175.82775692802923 339.07800000000003 173.352 C 339.319 170.58100000000002 339.53000000000003 167.80700000000002 339.75300000000004 165.035 C 339.87100000000004 163.57 339.99000000000007 162.105 340.124 160.642 C 340.18 160.031 340.237 159.42 340.302 158.81 C 340.32500000000005 158.587 340.35 158.365 340.375 158.143 C 340.388 158.029 340.402 157.916 340.416 157.803 C 340.453 157.493 340.348 158.28 340.416 157.81799999999998 C 340.67202518884613 156.75697908319634 340.0589707845657 155.67975491567498 339.016 155.35799999999998 C 337.95109900077557 155.07322771093627 336.85502109458236 155.69701188519255 336.55600000000004 156.75799999999998 Z" stroke-linecap="round" />
</g>
		<g transform="matrix(1.87 0 0 1.87 183.35 101.77)"  >
<path style="stroke: rgb(0,0,0); stroke-width: 1; stroke-dasharray: none; stroke-linecap: butt; stroke-dashoffset: 0; stroke-linejoin: miter; stroke-miterlimit: 4; fill: rgb(33,23,21); fill-rule: nonzero; opacity: 1;" vector-effect="non-scaling-stroke"  transform=" translate(-312.64, -204.22)" d="M 321.743 197.469 C 313.79211631007263 197.46308300187715 306.35437111234205 201.39522763589213 301.882 207.969 C 301.3244685450458 208.92279576295778 301.6457042370422 210.1479685450458 302.59950000000003 210.7055 C 303.5532957629578 211.2630314549542 304.7784685450458 210.94179576295778 305.336 209.988 C 309.06978688030665 204.6219323363477 315.2058343220577 201.4377848432613 321.743 201.474 C 324.318 201.49599999999998 324.32 197.49599999999998 321.743 197.474 Z" stroke-linecap="round" />
</g>
		<g transform="matrix(1.87 0 0 1.87 325.74 151.79)"  >
<path style="stroke: rgb(0,0,0); stroke-width: 1; stroke-dasharray: none; stroke-linecap: butt; stroke-dashoffset: 0; stroke-linejoin: miter; stroke-miterlimit: 4; fill: rgb(33,23,21); fill-rule: nonzero; opacity: 1;" vector-effect="non-scaling-stroke"  transform=" translate(-388.95, -231.03)" d="M 390.469 180.066 C 393.718 186.258 393.222 193.536 391.71 200.149 C 390.04499999999996 207.429 387.18199999999996 214.365 384.447 221.291 C 383.03000000000003 224.879 381.326 228.575 380.79200000000003 232.42 C 380.244 236.36499999999998 381.62600000000003 239.74699999999999 383.39200000000005 243.19699999999997 C 384.84738675924956 245.7733365180059 386.1379751935268 248.4393502039275 387.25600000000003 251.179 C 388.3987656025406 254.40391377895443 389.3340095959944 257.69864476160734 390.05600000000004 261.04299999999995 C 391.6659291565704 268.30139067047656 392.72527619347306 275.67102297579527 393.225 283.0889999999999 C 393.40200000000004 285.6429999999999 397.403 285.66299999999995 397.225 283.08899999999994 C 396.7587502726281 276.37324437065274 395.8710014052949 269.69341843135106 394.56699999999995 263.0889999999998 C 393.29 256.62899999999996 391.677 249.93299999999994 388.451 244.13499999999993 C 386.93 241.39999999999992 384.79600000000005 238.21599999999992 384.632 234.99999999999994 C 384.432 231.04199999999994 386.483 226.99199999999993 387.901 223.37999999999994 C 390.661 216.34599999999995 393.611 209.33699999999993 395.38800000000003 201.97199999999992 C 397.30100000000004 194.0409999999999 397.82200000000006 185.48299999999992 393.92100000000005 178.05099999999993 C 392.72100000000006 175.77099999999993 389.2710000000001 177.79099999999994 390.4680000000001 180.06999999999994 Z" stroke-linecap="round" />
</g>
		<g transform="matrix(1.87 0 0 1.87 287.88 170.3)"  >
<path style="stroke: rgb(0,0,0); stroke-width: 1; stroke-dasharray: none; stroke-linecap: butt; stroke-dashoffset: 0; stroke-linejoin: miter; stroke-miterlimit: 4; fill: rgb(33,23,21); fill-rule: nonzero; opacity: 1;" vector-effect="non-scaling-stroke"  transform=" translate(-368.66, -240.95)" d="M 358.719 197.4 C 357.941 204.27100000000002 357.358 211.163 356.588 218.036 C 356.276 220.83 355.939 223.623 355.458 226.394 C 354.78400000000005 230.268 354.113 234.143 354.677 238.07500000000002 C 355.57 244.30100000000002 359.75600000000003 249.483 362.716 254.86400000000003 C 365.469 259.86400000000003 368.05 264.96900000000005 370.67 270.04400000000004 C 373.365 275.266 376.004 280.55600000000004 379.093 285.56000000000006 C 380.44300000000004 287.74600000000004 383.90500000000003 285.73900000000003 382.547 283.54100000000005 C 376.89500000000004 274.38500000000005 372.43600000000004 264.49600000000004 367.34700000000004 255.02400000000006 C 366.228 252.93800000000005 365.09200000000004 250.85900000000007 363.87300000000005 248.83000000000007 C 362.13300000000004 245.93000000000006 360.189 243.09400000000008 359.17300000000006 239.84200000000007 C 358.05500000000006 236.28100000000006 358.42900000000003 232.60600000000008 359.0450000000001 228.98800000000006 C 359.5450000000001 226.04200000000006 359.9910000000001 223.09600000000006 360.3450000000001 220.12800000000004 C 361.24500000000006 212.56400000000005 361.86000000000007 204.96900000000005 362.7170000000001 197.40000000000003 C 362.7104477311369 196.2981559511499 361.8188440488502 195.4065522688632 360.7170000000001 195.40000000000003 C 359.62288716190153 195.42484570896295 358.741845708963 196.3058871619015 358.7170000000001 197.40000000000003 Z" stroke-linecap="round" />
</g>
		<g transform="matrix(1.87 0 0 1.87 234.6 -51.07)"  >
<path style="stroke: rgb(0,0,0); stroke-width: 1; stroke-dasharray: none; stroke-linecap: butt; stroke-dashoffset: 0; stroke-linejoin: miter; stroke-miterlimit: 4; fill: rgb(222,32,39); fill-rule: nonzero; opacity: 1;" vector-effect="non-scaling-stroke"  transform=" translate(-340.11, -122.31)" d="M 338.387 131.516 C 336.39644693659903 130.50496395065113 334.47969015330256 129.3547762156256 332.651 128.07399999999998 C 336.491 124.31699999999998 341.01300000000003 116.73399999999998 343.964 112.24399999999999 C 345.879 113.76799999999999 347.473 115.61799999999998 347.546 116.22699999999999 C 347.801 118.38 344.31 128.72699999999998 340.007 132.386 C 339.552 132.137 339 131.842 338.387 131.516 Z" stroke-linecap="round" />
</g>
		<g transform="matrix(1.87 0 0 1.87 234.61 -51.07)"  >
<path style="stroke: rgb(0,0,0); stroke-width: 1; stroke-dasharray: none; stroke-linecap: butt; stroke-dashoffset: 0; stroke-linejoin: miter; stroke-miterlimit: 4; fill: rgb(33,23,21); fill-rule: nonzero; opacity: 1;" vector-effect="non-scaling-stroke"  transform=" translate(-340.11, -122.32)" d="M 339.4 129.789 C 337.40692861445933 128.78252337218788 335.4898517791899 127.63214358365974 333.664 126.34699999999998 L 334.06399999999996 129.48799999999997 C 338.78099999999995 124.81499999999997 342.075 118.76599999999998 345.68999999999994 113.25399999999996 L 342.5489999999999 113.65899999999996 C 343.5999673336662 114.4578715689286 344.55112014602116 115.38015069901653 345.38199999999995 116.40599999999996 C 345.4536815425454 116.54895293956687 345.5415945262834 116.68317123535014 345.64399999999995 116.80599999999997 C 345.74399999999997 116.87399999999997 345.5249999999999 116.40599999999996 345.554 116.34799999999997 C 345.5195240274143 116.55881199516429 345.50979140830583 116.77292961555021 345.525 116.98599999999998 C 345.517 117.11999999999998 345.62 116.54199999999997 345.517 116.99899999999998 C 345.477 117.17999999999998 345.45 117.36299999999999 345.411 117.54399999999998 C 345.335 117.90199999999999 345.246 118.25699999999998 345.151 118.60999999999999 C 344.923 119.45699999999998 344.651 120.29399999999998 344.36 121.11999999999999 C 343.111 124.63999999999999 341.38100000000003 128.53799999999998 338.59200000000004 130.969 L 341.016 130.656 C 340.47700000000003 130.363 339.93600000000004 130.07500000000002 339.39500000000004 129.786 C 337.12500000000006 128.574 335.10300000000007 132.025 337.37600000000003 133.24 C 337.91700000000003 133.529 338.458 133.817 338.997 134.11 C 339.78712181067 134.54374285877958 340.76697149613835 134.41721936391505 341.421 133.79700000000003 C 344.877 130.78400000000002 346.921 125.98200000000003 348.373 121.73800000000003 C 348.999520793526 120.11930713875138 349.396045507873 118.42078107033468 349.551 116.69200000000002 C 349.658 114.26600000000002 347.068 112.19800000000002 345.377 110.82700000000003 C 344.9319810246667 110.40315829067211 344.3195327514654 110.20264445257817 343.7100188486219 110.2812350704233 C 343.1005049457785 110.35982568826846 342.55895095294636 110.70913638014895 342.236 111.23200000000003 C 338.806 116.46200000000003 335.712 122.22200000000002 331.236 126.65700000000002 C 330.80953057146934 127.10035079858804 330.6067459592479 127.71296400714444 330.6844591964132 128.32320720198496 C 330.7621724335785 128.9334503968255 331.11202475930554 129.47568640857216 331.63599999999997 129.79800000000003 C 333.461992789821 131.08292687530727 335.3790534929839 132.2332969834465 337.37199999999996 133.24000000000004 C 339.646 134.459 341.669 131.007 339.4 129.789 Z" stroke-linecap="round" />
</g>
		<g transform="matrix(1.87 0 0 1.87 262.97 -2.32)"  >
<path style="stroke: rgb(0,0,0); stroke-width: 1; stroke-dasharray: none; stroke-linecap: butt; stroke-dashoffset: 0; stroke-linejoin: miter; stroke-miterlimit: 4; fill: rgb(62,99,158); fill-rule: nonzero; opacity: 1;" vector-effect="non-scaling-stroke"  transform=" translate(-355.31, -148.44)" d="M 362.949 135.715 C 360.858 133.715 357.649 132.02100000000002 352.76800000000003 131.736 C 348.826 131.505 345.10400000000004 135.361 344.38000000000005 138.349 C 342.13300000000004 147.628 343.9920000000001 155.902 345.63100000000003 165.158 C 349.86400000000003 165.158 358.67100000000005 164.939 363.88700000000006 164.851 C 365.34967389873333 164.82924829380465 366.57597562378356 163.7399112428669 366.77000000000004 162.29 C 367.43238809764694 156.53107669238207 367.4461408937229 150.71599199062706 366.81100000000004 144.95400000000004 C 366.7 143.723 365.7 138.352 362.949 135.715 Z" stroke-linecap="round" />
</g>
		<g transform="matrix(1.87 0 0 1.87 263.01 -2.31)"  >
<path style="stroke: rgb(0,0,0); stroke-width: 1; stroke-dasharray: none; stroke-linecap: butt; stroke-dashoffset: 0; stroke-linejoin: miter; stroke-miterlimit: 4; fill: rgb(33,23,21); fill-rule: nonzero; opacity: 1;" vector-effect="non-scaling-stroke"  transform=" translate(-355.33, -148.44)" d="M 364.363 134.3 C 360.007 130.217 352.087 127.83400000000002 346.908 131.663 C 344.27984622787477 133.59639978227932 342.52962636744 136.49664075166748 342.04400000000004 139.723 C 341.32036246670003 143.7698167849495 341.1605114563406 147.89733813665214 341.569 151.98799999999997 C 341.994 156.594 342.894 161.139 343.70300000000003 165.688 C 343.9458025570572 166.55307243363202 344.73251068797055 167.15248853545341 345.63100000000003 167.15699999999998 C 348.87100000000004 167.15699999999998 352.11100000000005 167.082 355.35 167.017 Q 358.06600000000003 166.965 360.78200000000004 166.908 C 362.43500000000006 166.875 364.32500000000005 167.09199999999998 365.862 166.399 C 367.5637126039889 165.59379257051302 368.6905983547947 163.92436060079262 368.80100000000004 162.045 C 369.0946901767297 159.7157940807277 369.2532888473474 157.3715387830291 369.27600000000007 155.02400000000003 C 369.40654816041524 151.17839558330695 369.18394828018745 147.32892397034513 368.61100000000005 143.52399999999997 C 368.03200000000004 140.224 366.76900000000006 136.708 364.36300000000006 134.299 C 362.54200000000003 132.475 359.7130000000001 135.299 361.5350000000001 137.12800000000001 C 363.29100000000005 138.88600000000002 364.0940000000001 141.455 364.6050000000001 143.828 C 364.69000000000005 144.228 364.7660000000001 144.622 364.8250000000001 145.023 C 364.8410000000001 145.129 364.7910000000001 144.573 364.8250000000001 145.164 C 364.8600000000001 145.676 364.9150000000001 146.18699999999998 364.9560000000001 146.69799999999998 C 365.11300000000006 148.67799999999997 365.22400000000005 150.66199999999998 365.26200000000006 152.64799999999997 C 365.30000000000007 154.63399999999996 365.26200000000006 156.63999999999996 365.1290000000001 158.63099999999997 C 365.10231294732637 159.69166821990487 365.00207228968594 160.7492071580109 364.82900000000006 161.79599999999996 C 364.72900000000004 162.28499999999997 364.58700000000005 162.66099999999997 364.07000000000005 162.82399999999996 C 363.54445845983804 162.90699207268005 363.0104624773399 162.92245073548364 362.48100000000005 162.86999999999995 L 360.244 162.91399999999996 L 355.34400000000005 163.01399999999995 C 352.1050000000001 163.07899999999995 348.86500000000007 163.15099999999995 345.62500000000006 163.15399999999994 L 347.55400000000003 164.62199999999993 C 346.07000000000005 156.27599999999993 343.83500000000004 146.98799999999994 346.374 138.61099999999993 C 347.16400000000004 136.00399999999993 349.995 133.63399999999993 352.762 133.73199999999994 C 355.99531637394995 133.78294125382877 359.104232150839 134.98650691446085 361.529 137.12599999999995 C 363.412 138.889 366.246 136.066 364.363 134.3 Z" stroke-linecap="round" />
</g>
		<g transform="matrix(1.87 0 0 1.87 290.42 -4.06)"  >
<path style="stroke: rgb(0,0,0); stroke-width: 1; stroke-dasharray: none; stroke-linecap: butt; stroke-dashoffset: 0; stroke-linejoin: miter; stroke-miterlimit: 4; fill: rgb(33,23,21); fill-rule: nonzero; opacity: 1;" vector-effect="non-scaling-stroke"  transform=" translate(-370.02, -147.51)" d="M 393.922 180.066 C 394.94 177.714 394.391 175.291 393.415 173.011 C 392.87318396475064 171.87052074612868 392.27237114616895 170.7590170317526 391.615 169.68099999999998 C 390.951 168.481 390.442 167.17 389.837 165.939 C 387.352 160.882 384.626 155.939 381.767 151.089 Q 377.71999999999997 144.216 373.3 137.572 C 370.43977983406006 133.09719364912632 367.2777801562021 128.82261378030609 363.836 124.77799999999999 C 361.6739169691608 122.26670865144541 359.21760737798087 120.02460429798731 356.52000000000004 118.1 C 353.9793370595392 116.23172614396957 351.11522349561807 114.84916753676424 348.07200000000006 114.022 C 345.5640000000001 113.464 344.49300000000005 117.322 347.00900000000007 117.879 C 349.4241638845756 118.55117797199206 351.70810171372256 119.62738435395725 353.76400000000007 121.06200000000001 C 356.03839591238096 122.58998236821574 358.1139838107903 124.39482680552813 359.94300000000004 126.435 C 363.2453851824373 130.12013508474544 366.25014849967266 134.06150446158196 368.92900000000003 138.22200000000004 C 374.5910461576234 146.5642861129022 379.7750490525176 155.2212070288365 384.456 164.151 C 385.747 166.632 386.82500000000005 169.251 388.156 171.70000000000002 C 388.91345448977285 172.89346442096104 389.5601489082688 174.15371518992438 390.088 175.465 C 390.31100000000004 176.14000000000001 390.757 177.358 390.459 178.047 C 389.9377855067113 179.0055325263086 390.2517750379841 180.20412296855926 391.176 180.784 C 392.13089083129574 181.3331533854347 393.3498123841197 181.0132755802711 393.912 180.066 Z" stroke-linecap="round" />
</g>
		<g transform="matrix(1.87 0 0 1.87 313.96 260.7)"  >
<path style="stroke: rgb(0,0,0); stroke-width: 1; stroke-dasharray: none; stroke-linecap: butt; stroke-dashoffset: 0; stroke-linejoin: miter; stroke-miterlimit: 4; fill: rgb(33,23,21); fill-rule: nonzero; opacity: 1;" vector-effect="non-scaling-stroke"  transform=" translate(-382.64, -289.4)" d="M 388.016 297.73 Q 391.196 296.873 394.326 295.839 C 396.1847041180916 295.41016129669504 397.76063013790855 294.185335063145 398.63500000000005 292.49 C 400.49100000000004 288.446 398.63500000000005 284.09000000000003 396.81000000000006 280.413 C 396.4909970082163 279.8849530371568 395.9481784334753 279.5316305622148 395.336195852563 279.4536958177497 C 394.7242132716506 279.3757610732846 394.11016636584156 279.5817590680546 393.66900000000004 280.01300000000003 C 391.12903511180275 282.34652386298467 387.72658027793534 283.50739980587576 384.29 283.213 C 383.4773029479757 283.1206128812758 382.6742432058654 282.9573240670467 381.89000000000004 282.725 C 380.9586538943281 282.5377972083874 379.99704765273833 282.56343548358086 379.07700000000006 282.8 C 377.4023040145459 283.0997681241075 375.778291251002 283.63437265738025 374.25300000000004 284.38800000000003 C 371.0521782742386 285.96596580037914 368.38033931572437 288.4421687420325 366.564 291.514 C 365.62 293.279 365.50100000000003 295.514 367.077 296.968 C 368.57 298.351 370.968 298.774 372.907 299.06800000000004 C 377.993 299.83700000000005 383.08299999999997 299.02400000000006 388.014 297.73 C 390.502 297.077 389.447 293.218 386.951 293.873 C 382.24100000000004 295.108 377.221 296.01099999999997 372.39000000000004 294.917 C 371.7847829281192 294.7893815158014 371.1877215329337 294.6257573079485 370.60200000000003 294.42699999999996 C 370.42117444789346 294.38073357590196 370.2463358722427 294.31361704014347 370.081 294.227 Q 369.629 293.864 369.84200000000004 294.147 C 369.66800000000006 293.513 370.71400000000006 292.507 371.08000000000004 292.078 C 372.1857834772028 290.71960520045684 373.49370827317705 289.53916765896383 374.958 288.578 C 376.4352138974605 287.6708875694338 378.06724838478976 287.04438160088694 379.77200000000005 286.72999999999996 Q 380.1410000000001 286.65799999999996 380.51500000000004 286.599 Q 381.21500000000003 286.536 380.648 286.531 C 381.124 286.593 381.617 286.81600000000003 382.093 286.914 C 383.12235843587075 287.1278551053653 384.1697678209821 287.24304334976375 385.221 287.258 C 389.4064435720702 287.28364751503426 393.4421662969857 285.70228849076136 396.496 282.84 L 393.354 282.44 C 394.515 284.783 396.317 288.175 395.024 290.81 C 394.488 291.903 392.974 292.084 391.924 292.41 C 390.275 292.92900000000003 388.61899999999997 293.42600000000004 386.94899999999996 293.87600000000003 C 384.47 294.541 385.523 298.4 388.016 297.73 Z" stroke-linecap="round" />
</g>
		<g transform="matrix(1.87 0 0 1.87 34.64 96.8)"  >
<path style="stroke: rgb(0,0,0); stroke-width: 1; stroke-dasharray: none; stroke-linecap: butt; stroke-dashoffset: 0; stroke-linejoin: miter; stroke-miterlimit: 4; fill: rgb(33,23,21); fill-rule: nonzero; opacity: 1;" vector-effect="non-scaling-stroke"  transform=" translate(-232.94, -201.56)" d="M 229.962 199.236 L 232.06199999999998 204.94299999999998 C 232.21390399029318 205.43927780748845 232.54035703671792 205.86377333575567 232.981 206.13799999999998 C 233.68331599296826 206.5489082807338 234.56456567102776 206.49336284404887 235.20972902267798 205.99752252817885 C 235.8548923743282 205.50168221230882 236.1353413719685 204.66440409224413 235.91899999999998 203.87999999999997 L 233.819 198.17199999999997 C 233.66685107520172 197.67584859980357 233.3404579085882 197.25143093483825 232.89999999999998 196.97699999999998 C 232.43269296919692 196.71006491495976 231.87896583913198 196.63819896686567 231.35899999999998 196.777 C 230.30073442362706 197.08011715028832 229.6787677773211 198.17344566211617 229.95899999999997 199.238 Z" stroke-linecap="round" />
</g>
		<g transform="matrix(1.87 0 0 1.87 20.52 112.11)"  >
<path style="stroke: rgb(0,0,0); stroke-width: 1; stroke-dasharray: none; stroke-linecap: butt; stroke-dashoffset: 0; stroke-linejoin: miter; stroke-miterlimit: 4; fill: rgb(33,23,21); fill-rule: nonzero; opacity: 1;" vector-effect="non-scaling-stroke"  transform=" translate(-225.37, -209.77)" d="M 221.8 210.488 Q 224.859 211.646 227.88000000000002 212.904 C 228.39962693682236 213.0477652425689 228.95528786619525 212.97564831468145 229.42100000000002 212.704 C 229.87905998916898 212.43642523230187 230.21205099021964 211.99783023044168 230.34670525767493 211.48471870431675 C 230.48135952513024 210.97160717819182 230.4066446187351 210.42601917869052 230.139 209.96800000000002 L 229.82600000000002 209.56300000000002 C 229.58141206510555 209.31825605441873 229.27751248138435 209.1411535759236 228.94400000000002 209.049 Q 225.925 207.78900000000002 222.864 206.633 C 222.34390412709703 206.49124264028254 221.7887227524057 206.5632506006835 221.322 206.833 C 220.36849317851045 207.3905411645734 220.04748446112376 208.61547819493597 220.605 209.569 C 220.887014888023 210.00251785658992 221.3086089195224 210.32673954273886 221.79999999999998 210.488 Z" stroke-linecap="round" />
</g>
		<g transform="matrix(1.87 0 0 1.87 190.25 -109.17)"  >
<path style="stroke: rgb(0,0,0); stroke-width: 1; stroke-dasharray: none; stroke-linecap: butt; stroke-dashoffset: 0; stroke-linejoin: miter; stroke-miterlimit: 4; fill: rgb(62,99,158); fill-rule: nonzero; opacity: 1;" vector-effect="non-scaling-stroke"  transform=" translate(-316.34, -91.17)" d="M 337.015 86.833 L 302.115 104.715 C 300.4653854323322 105.68568111853124 298.6572722108037 106.35733373630177 296.774 106.699 C 296.24690049560803 106.81184684957718 295.6965906762588 106.71768192928513 295.237 106.43599999999999 C 294.237 105.675 294.961 104.10199999999999 295.737 103.11999999999999 Q 298.10400000000004 100.12899999999999 300.55400000000003 97.204 C 298.19800000000004 90.351 301.961 85.612 304.94300000000004 82.238 C 307.10300000000007 79.794 311.25300000000004 77.805 315.13700000000006 76.649 C 325.57400000000007 73.543 333.17500000000007 77.634 337.6480000000001 85.009 C 337.89525828300606 85.32746476231752 337.9826257329947 85.74181503146171 337.8850000000001 86.133 C 337.725897335867 86.41954578832672 337.4699362228898 86.64005522360617 337.1630000000001 86.755 Z" stroke-linecap="round" />
</g>
		<g transform="matrix(1.87 0 0 1.87 190.19 -109.16)"  >
<path style="stroke: rgb(0,0,0); stroke-width: 1; stroke-dasharray: none; stroke-linecap: butt; stroke-dashoffset: 0; stroke-linejoin: miter; stroke-miterlimit: 4; fill: rgb(33,23,21); fill-rule: nonzero; opacity: 1;" vector-effect="non-scaling-stroke"  transform=" translate(-316.31, -91.18)" d="M 336.006 85.106 L 313.478 96.65 L 302.214 102.42200000000001 C 300.6167166379275 103.37362814352211 298.90229900537145 104.11318084776197 297.114 104.62200000000001 C 296.78543629299196 104.64094415983818 296.458026690343 104.67632175196947 296.133 104.72800000000001 C 296.03999999999996 104.834 296.882 105.38700000000001 296.75899999999996 105.42800000000001 C 296.77099999999996 105.42800000000001 296.83199999999994 105.11100000000002 296.852 105.08900000000001 C 297.393 104.49900000000001 297.84 103.67800000000001 298.352 103.046 C 299.582 101.51400000000001 301.042 100.046 302.13599999999997 98.41900000000001 C 302.789 97.44700000000002 302.436 96.63400000000001 302.171 95.60000000000001 C 301.9547840137883 94.78824271340494 301.83924967625086 93.95296975568495 301.827 93.11300000000001 C 301.9288032416704 90.33123584603482 302.96806680274295 87.66559000813956 304.776 85.549 C 306.5962656755357 83.1508544296502 308.99458552444275 81.25311633087365 311.747 80.033 C 314.78853063872634 78.57559512570135 318.0943127949351 77.75093566839456 321.464 77.609 C 324.47080133758703 77.51102972955115 327.44137219933793 78.28815135482736 330.015 79.84599999999999 C 331.2581031309348 80.62186311094794 332.39211154686956 81.56014409566265 333.387 82.63599999999998 C 333.8656502971857 83.14022186624635 334.31505171824284 83.67142369455385 334.733 84.22699999999999 C 335.043 84.64299999999999 335.964 85.633 335.897 86.136 L 336.17 85.127 Q 336.20300000000003 84.92699999999999 336.014 85.109 C 333.72200000000004 86.283 335.744 89.73599999999999 338.033 88.56299999999999 C 342.68600000000004 86.17799999999998 337.211 80.55299999999998 334.84200000000004 78.47999999999999 C 331.9144412099809 75.89456704157948 328.27544875712033 74.25175815221111 324.4 73.766 C 319.88022257506884 73.33705669121233 315.32643934134967 74.0871199506363 311.183 75.94300000000003 C 308.88942562540876 76.83697758421812 306.74314719143587 78.07040506810485 304.816 79.60200000000002 C 303.40510419838273 80.85460823230028 302.15279675426945 82.27516615361945 301.087 83.83200000000002 C 298.0171802147803 87.7727551520537 297.09681031918353 92.97745065603864 298.62899999999996 97.73200000000003 L 299.14399999999995 95.78600000000003 Q 297.155 98.16300000000003 295.21799999999996 100.58600000000003 C 294.11799999999994 101.96600000000002 292.78799999999995 103.42800000000003 292.763 105.30900000000003 C 292.72787572344254 107.1272681579869 294.1547380877814 108.6390575125373 295.972 108.70900000000003 C 297.92261116165804 108.68525405980587 299.8368332396755 108.17774983987556 301.543 107.23200000000003 C 305.443 105.41000000000003 309.236 103.31400000000002 313.067 101.35100000000003 L 324.773 95.35100000000003 L 338.02500000000003 88.56100000000002 C 340.317 87.385 338.3 83.933 336.006 85.106 Z" stroke-linecap="round" />
</g>
</g>
</g>
</svg>