<svg width="34" height="26" viewBox="0 0 34 26" fill="none" xmlns="http://www.w3.org/2000/svg">
<path d="M12.5054 17.716C10.9475 17.716 9.68857 19.4006 9.68857 21.4778C9.68857 23.5488 10.9475 25.2335 12.5054 25.2335C14.0632 25.2335 15.3222 23.5488 15.3222 21.4778C15.3221 19.4006 14.0632 17.716 12.5054 17.716ZM12.5054 23.3557C11.7264 23.3557 11.0969 22.5102 11.0969 21.4777C11.0969 20.4392 11.7264 19.5998 12.5054 19.5998C13.2843 19.5998 13.9138 20.4392 13.9138 21.4777C13.9137 22.5102 13.2843 23.3557 12.5054 23.3557ZM33.75 14.9374V18.9478C33.75 19.9482 33.1418 20.7592 32.3914 20.7592H30.9377C30.6751 18.356 29.1218 16.5083 27.2469 16.5083C25.3766 16.5083 23.8233 18.356 23.5606 20.7592H16.1926C15.9299 18.356 14.3766 16.5083 12.5063 16.5083C10.6359 16.5083 9.08261 18.356 8.82 20.7592H6.99949C6.24915 20.7592 5.64094 19.9482 5.64094 18.9478V14.9374H33.75ZM27.2505 17.716C25.6927 17.716 24.4292 19.4006 24.4292 21.4778C24.4292 23.5488 25.6927 25.2335 27.2505 25.2335C28.8038 25.2335 30.0673 23.5488 30.0673 21.4778C30.0673 19.4006 28.8038 17.716 27.2505 17.716ZM27.2505 23.3557C26.4716 23.3557 25.8421 22.5102 25.8421 21.4777C25.8421 20.4392 26.4716 19.5998 27.2505 19.5998C28.0249 19.5998 28.6589 20.4392 28.6589 21.4777C28.6589 22.5102 28.0249 23.3557 27.2505 23.3557ZM33.2147 10.8989L27.8755 3.85838C27.5359 3.41154 27.0785 3.15794 26.6029 3.15794H23.9085V1.8114C23.9085 0.809117 23.3016 0 22.5499 0H6.99855C6.25131 0 5.64 0.809191 5.64 1.8114V2.09522L0.126838 2.94243L9.89592 4.6386L0 5.94934L9.86107 7.81868L0 8.95868L5.64033 10.3771L5.63995 13.9361H33.7491V12.6137C33.7491 11.9676 33.5543 11.3518 33.2147 10.8989ZM30.887 11.1343H25.7199C25.6021 11.1343 25.507 11.0076 25.507 10.8506V5.53096C25.507 5.37397 25.6021 5.24713 25.7199 5.24713H26.7026C26.7569 5.24713 26.8113 5.27735 26.852 5.32566L31.032 10.6453C31.1723 10.8204 31.0771 11.1343 30.887 11.1343Z" fill="#1C1C1C"/>
</svg>
