<?xml version="1.0" encoding="UTF-8" standalone="no" ?>
<!DOCTYPE svg PUBLIC "-//W3C//DTD SVG 1.1//EN" "http://www.w3.org/Graphics/SVG/1.1/DTD/svg11.dtd">
<svg xmlns="http://www.w3.org/2000/svg" xmlns:xlink="http://www.w3.org/1999/xlink" version="1.1" width="1080" height="1080" viewBox="0 0 1080 1080" xml:space="preserve">
<desc>Created with Fabric.js 5.2.4</desc>
<defs>
</defs>
<rect x="0" y="0" width="100%" height="100%" fill="transparent"></rect>
<g transform="matrix(1 0 0 1 540 540)" id="3d78b9a1-073b-411e-9d2d-3d7dd008cb1d"  >
<rect style="stroke: none; stroke-width: 1; stroke-dasharray: none; stroke-linecap: butt; stroke-dashoffset: 0; stroke-linejoin: miter; stroke-miterlimit: 4; fill: rgb(255,255,255); fill-rule: nonzero; opacity: 1; visibility: hidden;" vector-effect="non-scaling-stroke"  x="-540" y="-540" rx="0" ry="0" width="1080" height="1080" />
</g>
<g transform="matrix(1 0 0 1 540 540)" id="37c43200-aa03-4841-ba9b-f196b2ef7aa3"  >
</g>
<g transform="matrix(5.88 0 0 4.97 539.95 546.42)"  >
<g style="" vector-effect="non-scaling-stroke"   >
		<g transform="matrix(4 0 0 4 0 0)"  >
<path style="stroke: none; stroke-width: 1; stroke-dasharray: none; stroke-linecap: butt; stroke-dashoffset: 0; stroke-linejoin: miter; stroke-miterlimit: 4; fill: rgb(28,28,28); fill-rule: nonzero; opacity: 1;" vector-effect="non-scaling-stroke"  transform=" translate(-32, -32)" d="M 19 34.29 C 16.942263615282492 29.90629489442034 16.606760638487724 24.909442048540797 18.060000000000002 20.29 C 20.56 12.79 25.869999999999997 8.229999999999999 28.81 6.92 C 31.75 5.610000000000001 35.5 4.42 36.68 5.54 C 37.86 6.66 43.4 22.189999999999998 43.4 22.189999999999998 L 47.53 21.599999999999998 C 47.53 21.599999999999998 47.61 18.999999999999996 50.82 18.999999999999996 C 54.03 18.999999999999996 54.82 22.749999999999996 53.94 23.999999999999996 C 53.059999999999995 25.249999999999996 50.28 25.379999999999995 49.73 25.209999999999997 L 48.779999999999994 24.999999999999996 C 47.6807257060696 25.655390025816395 46.62212385579226 26.37670863673093 45.60999999999997 27.16000000000001 C 45.60999999999999 27.33 51.60999999999999 42.08 51.47999999999999 42.83 C 51.05662200764422 43.88996423422069 50.33389805524748 44.803793077876186 49.39999999999999 45.46 C 48.64999999999999 45.96 44.68999999999999 48.75 37.68999999999999 47.910000000000004 C 32.71275282503505 47.215761989983754 28.049418286149145 45.07361875661036 24.27999999999999 41.74999999999999 C 22.80992068080182 40.340699899876455 21.53222658858921 38.743582284610696 20.479999999999983 36.99999999999999 L 18.72999999999999 38.1 L 24.35999999999999 47.730000000000004 C 24.35999999999999 47.730000000000004 30.85999999999999 47.35 35.359999999999985 50.980000000000004 C 39.859999999999985 54.61000000000001 39.76999999999998 58.35 39.47999999999998 58.64 C 39.18999999999998 58.93 9.859999999999982 59 9.779999999999983 58.730000000000004 C 9.699999999999985 58.46000000000001 9.359999999999983 55.81 12.229999999999983 53 C 14.370846851646009 51.10563918908181 16.823812054148444 49.596642664507904 19.479999999999972 48.540000000000006 C 19.479999999999983 48.54 16.10999999999998 40.62 15.899999999999983 40.54 C 14.405985872186854 40.28596160134439 13.14785072830936 39.280964759688494 12.569999999999983 37.879999999999995 C 12.21546371671125 37.059607585231426 12.220163712845167 36.12833222827251 12.582962500906099 35.31156008761178 C 12.945761288967029 34.49478794695105 13.633596836768648 33.866951869918964 14.47999999999998 33.58 C 15.64363486910796 33.326459178784525 16.86011566322949 33.58505240148701 17.81999999999998 34.29 C 18.024298662297344 34.46717079006187 18.19385048037176 34.68080608083564 18.319999999999983 34.92 z" stroke-linecap="round" />
</g>
		<g transform="matrix(4 0 0 4 9.45 -21.55)"  >
<path style="stroke: none; stroke-width: 1; stroke-dasharray: none; stroke-linecap: butt; stroke-dashoffset: 0; stroke-linejoin: miter; stroke-miterlimit: 4; fill: rgb(124,234,156); fill-rule: nonzero; opacity: 1;" vector-effect="non-scaling-stroke"  transform=" translate(-34.36, -26.61)" d="M 35 6.77 C 35.56 6.71 42.09 23.44 42.09 23.44 C 42.09 23.44 40.63 23.310000000000002 40.67 23.44 C 40.71 23.57 40.550000000000004 24.1 40.75 24.1 C 40.949999999999996 24.1 42.34 24.23 42.38 24.400000000000002 C 42.42 24.570000000000004 43.88 28.150000000000002 43.88 28.150000000000002 C 43.028902960438586 27.696289374650956 42.14271652330766 27.31171790193376 41.22999999999999 26.999999999999996 C 41.150000000000006 27.120000000000005 40.940000000000005 27.540000000000003 41.230000000000004 27.750000000000004 C 41.52 27.960000000000004 44.00000000000001 29.100000000000005 44.11000000000001 29.310000000000002 C 44.220000000000006 29.52 46.03000000000001 33.31 46.03000000000001 33.31 C 46.03000000000001 33.31 41.03000000000001 29.64 40.98000000000001 29.810000000000002 C 40.930000000000014 29.980000000000004 40.610000000000014 30.560000000000002 40.78000000000001 30.64 C 40.95 30.72 46.150000000000006 34.230000000000004 46.32000000000001 34.52 C 46.49000000000001 34.81 48.480000000000004 39.31 48.32000000000001 39.27 C 48.16000000000001 39.230000000000004 40.940000000000005 34 40.82000000000001 34.1 C 40.70000000000001 34.2 40.400000000000006 34.980000000000004 40.57000000000001 35.1 C 40.74000000000001 35.22 48.57000000000001 40.1 48.78000000000001 40.480000000000004 C 49.13646473410186 41.202577987107325 49.427623421593935 41.95557459269031 49.650000000000006 42.730000000000004 C 49.58246084700323 42.958960437919146 49.41254830582265 43.14364798268066 49.190000000000005 43.230000000000004 C 49.03000000000001 43.230000000000004 40.36000000000001 37.480000000000004 40.11000000000001 37.56 C 39.86000000000001 37.64 39.53000000000001 38.190000000000005 39.690000000000005 38.31 C 39.85 38.43 48.57000000000001 43.730000000000004 48.36000000000001 43.940000000000005 C 48.150000000000006 44.150000000000006 46.07000000000001 45.190000000000005 46.07000000000001 45.190000000000005 C 46.07000000000001 45.190000000000005 39.00000000000001 40.64000000000001 38.78000000000001 40.64000000000001 C 38.56000000000001 40.64000000000001 38.150000000000006 40.98000000000001 38.28000000000001 41.10000000000001 C 38.41000000000001 41.220000000000006 45.400000000000006 45.48000000000001 45.19000000000001 45.60000000000001 C 44.54633192671018 45.87703579983983 43.876240453607544 46.08811461386716 43.19000000000001 46.23000000000001 C 42.862216559019835 46.304409913039294 42.525444369082074 46.331351688234314 42.19000000000001 46.31000000000001 C 42.19000000000001 46.31000000000001 37.44000000000001 42.64000000000001 37.24000000000001 42.64000000000001 C 37.040000000000006 42.64000000000001 36.44000000000001 42.98000000000001 36.74000000000001 43.190000000000005 C 37.040000000000006 43.4 41.32000000000001 46.35000000000001 41.11000000000001 46.440000000000005 C 37.61441325855369 46.541486224290004 34.14604185810952 45.79703855475847 31.00000000000001 44.27000000000001 C 26.000000000000007 41.85 20.650000000000006 35.940000000000005 19.440000000000005 30.560000000000002 C 18.36476842862336 24.80934322657614 19.70678570163117 18.869741171916225 23.149999999999995 14.140000000000015 C 26.400000000000006 10.06 31.360000000000007 7.19 35.00000000000001 6.7700000000000005 z" stroke-linecap="round" />
</g>
		<g transform="matrix(4 0 0 4 -17.34 -69.24)"  >
<path style="stroke: none; stroke-width: 1; stroke-dasharray: none; stroke-linecap: butt; stroke-dashoffset: 0; stroke-linejoin: miter; stroke-miterlimit: 4; fill: rgb(28,28,28); fill-rule: nonzero; opacity: 1;" vector-effect="non-scaling-stroke"  transform=" translate(-27.66, -14.69)" d="M 29.65 11.14 C 30 11.05 30.32 12.14 30.189999999999998 12.39 C 30.059999999999995 12.64 27.729999999999997 13.52 26.939999999999998 15.39 C 26.15 17.26 26.189999999999998 17.73 26.029999999999998 17.98 C 25.869999999999997 18.23 25.229999999999997 18.35 25.109999999999996 18.1 C 25.163969724774386 16.77531515315812 25.613255195018148 15.497115404480132 26.399999999999995 14.430000000000001 C 27.529999999999994 12.64 28.729999999999997 11.39 29.649999999999995 11.14 z" stroke-linecap="round" />
</g>
		<g transform="matrix(4 0 0 4 66.14 -36.32)"  >
<path style="stroke: none; stroke-width: 1; stroke-dasharray: none; stroke-linecap: butt; stroke-dashoffset: 0; stroke-linejoin: miter; stroke-miterlimit: 4; fill: rgb(62,99,158); fill-rule: nonzero; opacity: 1;" vector-effect="non-scaling-stroke"  transform=" translate(-48.53, -22.92)" d="M 43.9 23 C 43.99 22.81 48.23 22.37 48.36 22.12 C 48.49 21.87 48.65 19.12 51.44 19.830000000000002 C 54.23 20.540000000000003 53.11 23.830000000000002 51.78 24.21 C 50.45 24.59 48.94 23.79 48.61 24 C 47.52955021545707 24.777806648118677 46.40059198195849 25.485910628892935 45.22999999999999 26.12 C 44.63985110435108 25.148899306020414 44.19196211966861 24.098212364509653 43.9 23 z" stroke-linecap="round" />
</g>
		<g transform="matrix(4 0 0 4 -54.89 36.66)"  >
<path style="stroke: none; stroke-width: 1; stroke-dasharray: none; stroke-linecap: butt; stroke-dashoffset: 0; stroke-linejoin: miter; stroke-miterlimit: 4; fill: rgb(62,99,158); fill-rule: nonzero; opacity: 1;" vector-effect="non-scaling-stroke"  transform=" translate(-18.28, -41.16)" d="M 14.61 34.44 C 15.303867842551762 34.029638607633814 16.16613215744824 34.029638607633814 16.86 34.44 C 17.73 34.94 17.86 35.269999999999996 17.78 35.349999999999994 C 17.700000000000003 35.42999999999999 16.86 35.94 16.98 36.099999999999994 C 17.1 36.25999999999999 17.150000000000002 36.849999999999994 17.44 36.64999999999999 C 17.73 36.44999999999999 19.23 35.01999999999999 19.44 35.22999999999999 C 19.650000000000002 35.43999999999999 20.27 36.05999999999999 19.98 36.22999999999999 C 19.69 36.39999999999999 17.65 37.72999999999999 17.77 37.97999999999999 C 17.89 38.22999999999999 23.61 47.51999999999999 23.32 47.64999999999999 C 23.03 47.779999999999994 20.32 48.18999999999999 20.32 48.18999999999999 L 16.73 40.099999999999994 C 16.73 40.099999999999994 17.44 39.69 17.400000000000002 39.48 C 17.360000000000003 39.269999999999996 17.400000000000002 38.88999999999999 17.23 38.94 C 16.737983655737505 39.23433289703153 16.182315231355393 39.40583549714947 15.61 39.44 C 14.979999999999999 39.349999999999994 13.11 38.44 13.23 36.769999999999996 C 13.350000000000001 35.099999999999994 13.940000000000001 34.69 14.61 34.44 z" stroke-linecap="round" />
</g>
		<g transform="matrix(4 0 0 4 -67.56 20.04)"  >
<path style="stroke: none; stroke-width: 1; stroke-dasharray: none; stroke-linecap: butt; stroke-dashoffset: 0; stroke-linejoin: miter; stroke-miterlimit: 4; fill: rgb(28,28,28); fill-rule: nonzero; opacity: 1;" vector-effect="non-scaling-stroke"  transform=" translate(-15.11, -37.01)" d="M 16.15 35.39 C 16.389999999999997 35.39 16.07 35.89 15.939999999999998 36.02 C 15.809999999999995 36.150000000000006 14.939999999999998 36.440000000000005 15.109999999999998 37.02 C 15.279999999999998 37.6 15.939999999999998 37.56 16.11 38.02 C 16.28 38.480000000000004 16.36 38.64 16.11 38.64 C 15.86 38.64 14.23 38.93 13.98 37.35 C 13.73 35.77 15.15 35.19 16.15 35.39 z" stroke-linecap="round" />
</g>
		<g transform="matrix(4 0 0 4 -29.11 85.39)"  >
<path style="stroke: none; stroke-width: 1; stroke-dasharray: none; stroke-linecap: butt; stroke-dashoffset: 0; stroke-linejoin: miter; stroke-miterlimit: 4; fill: rgb(222,32,39); fill-rule: nonzero; opacity: 1;" vector-effect="non-scaling-stroke"  transform=" translate(-24.72, -53.34)" d="M 12.28 56.89 C 11.739999999999998 56.79 13.28 53.1 17.82 51.1 C 22.36 49.1 24.07 48.64 29.82 49.980000000000004 C 35.57 51.32000000000001 37.53 56.980000000000004 37.24 57.27 C 36.21231852276939 57.5041530069263 35.148301319830566 57.531348334796945 34.11 57.35 C 34.03 57.190000000000005 31.49 53.94 31.11 53.85 C 30.73 53.760000000000005 30.32 53.940000000000005 30.48 54.14 C 31.363286402837105 55.13200319210182 32.184832016118534 56.177303098431445 32.94 57.269999999999996 C 32.78 57.27 31.729999999999997 57.27 31.729999999999997 57.27 C 31.005054459226987 56.33998688216852 30.198518979972526 55.47655885873428 29.32 54.690000000000005 C 29.069999999999997 54.690000000000005 28.569999999999997 55.02 28.779999999999998 55.190000000000005 C 28.99 55.36000000000001 30.779999999999998 57.190000000000005 30.61 57.190000000000005 C 30.44 57.190000000000005 29.53 57.190000000000005 29.53 57.190000000000005 C 28.95857560898511 56.5517149557444 28.343781624427457 55.95362732946277 27.689999999999984 55.39999999999999 C 27.48 55.400000000000006 27.110000000000003 55.650000000000006 27.150000000000002 55.82000000000001 C 27.19 55.99000000000001 28.44 57.07000000000001 28.150000000000002 57.190000000000005 C 27.860000000000003 57.31 12.900000000000002 57.00000000000001 12.280000000000003 56.89000000000001 z" stroke-linecap="round" />
</g>
		<g transform="matrix(4 0 0 4 8.97 90.77)"  >
<path style="stroke: none; stroke-width: 1; stroke-dasharray: none; stroke-linecap: butt; stroke-dashoffset: 0; stroke-linejoin: miter; stroke-miterlimit: 4; fill: rgb(28,28,28); fill-rule: nonzero; opacity: 1;" vector-effect="non-scaling-stroke"  transform=" translate(-34.24, -54.69)" d="M 32.44 53.14 C 32.29 52.92 32.9 52.6 33.19 52.730000000000004 C 34.29385718249163 53.814862174979375 35.26102355575334 55.030536574704165 36.069999999999986 56.34999999999999 C 35.94 56.56 35.44 56.77 35.32 56.64 C 35.2 56.51 32.53 53.27 32.44 53.14 z" stroke-linecap="round" />
</g>
		<g transform="matrix(4 0 0 4 -60.14 87.42)"  >
<path style="stroke: none; stroke-width: 1; stroke-dasharray: none; stroke-linecap: butt; stroke-dashoffset: 0; stroke-linejoin: miter; stroke-miterlimit: 4; fill: rgb(28,28,28); fill-rule: nonzero; opacity: 1;" vector-effect="non-scaling-stroke"  transform=" translate(-16.97, -53.85)" d="M 15.78 55 C 15.629999999999999 54.91 15.979999999999999 54 16.53 53.37 C 17.080000000000005 52.739999999999995 17.19 52.54 17.53 52.58 C 17.87 52.62 18.32 52.75 18.150000000000002 53.04 C 17.980000000000004 53.33 17.150000000000002 53.79 17.03 54.33 C 16.91 54.87 16.94 54.96 16.78 55.04 C 16.456513396108097 55.171601984486415 16.091941759751162 55.15701911903214 15.780000000000001 55 z" stroke-linecap="round" />
</g>
		<g transform="matrix(4 0 0 4 -40.98 86.25)"  >
<path style="stroke: none; stroke-width: 1; stroke-dasharray: none; stroke-linecap: butt; stroke-dashoffset: 0; stroke-linejoin: miter; stroke-miterlimit: 4; fill: rgb(28,28,28); fill-rule: nonzero; opacity: 1;" vector-effect="non-scaling-stroke"  transform=" translate(-21.76, -53.56)" d="M 20.86 51.73 C 21.46380126439924 51.39200742026362 22.194160492319714 51.36838595095301 22.818539941759486 51.666656388583476 C 23.442919391199254 51.96492682621394 23.883497720778905 52.54791337076345 24 53.23 C 24.41 55.059999999999995 21.12 56.599999999999994 20 54.98 C 19.542033575072107 54.47789302942434 19.370372230818358 53.777588139089374 19.54421908643294 53.12060874287148 C 19.71806594204752 52.46362934665359 20.213630178379052 51.93988260995042 20.86 51.73 z" stroke-linecap="round" />
</g>
		<g transform="matrix(4 0 0 4 -40.76 86.25)"  >
<path style="stroke: none; stroke-width: 1; stroke-dasharray: none; stroke-linecap: butt; stroke-dashoffset: 0; stroke-linejoin: miter; stroke-miterlimit: 4; fill: rgb(237,155,64); fill-rule: nonzero; opacity: 1;" vector-effect="non-scaling-stroke"  transform=" translate(-21.81, -53.56)" d="M 21.3 52.57 C 21.627838363633835 52.38603767868556 22.02449739577617 52.372351592994235 22.364235671167094 52.53328024975836 C 22.703973946558023 52.69420890652248 22.944661475276167 53.009795994726666 23.01 53.38 C 23.23 54.38 21.450000000000003 55.2 20.87 54.330000000000005 C 20.629220703134905 54.05985347109453 20.536713278727152 53.68856288683709 20.62259983090435 53.33702723141414 C 20.708486383081546 52.98549157599119 20.96177863088186 52.69868613892095 21.3 52.57000000000001 z" stroke-linecap="round" />
</g>
		<g transform="matrix(4 0 0 4 -22.76 78.29)"  >
<path style="stroke: none; stroke-width: 1; stroke-dasharray: none; stroke-linecap: butt; stroke-dashoffset: 0; stroke-linejoin: miter; stroke-miterlimit: 4; fill: rgb(28,28,28); fill-rule: nonzero; opacity: 1;" vector-effect="non-scaling-stroke"  transform=" translate(-26.31, -51.57)" d="M 25.44 50.56 C 26.192573791761312 50.09637680869269 27.160237761267354 50.181758923649106 27.82 50.77 C 28.23 51.31 27.73 52.230000000000004 26.9 52.690000000000005 C 26.069999999999997 53.150000000000006 24.9 52.690000000000005 24.729999999999997 52.1 C 24.501336407135952 51.478700774411536 24.81904287436434 50.78959097225419 25.439999999999998 50.56 z" stroke-linecap="round" />
</g>
		<g transform="matrix(4 0 0 4 -22.63 77.9)"  >
<path style="stroke: none; stroke-width: 1; stroke-dasharray: none; stroke-linecap: butt; stroke-dashoffset: 0; stroke-linejoin: miter; stroke-miterlimit: 4; fill: rgb(237,155,64); fill-rule: nonzero; opacity: 1;" vector-effect="non-scaling-stroke"  transform=" translate(-26.34, -51.47)" d="M 26.36 50.89 C 26.97 50.76 27.36 51.06 27.11 51.480000000000004 C 26.86 51.900000000000006 26.03 52.27 25.689999999999998 51.980000000000004 C 25.349999999999994 51.690000000000005 25.4 51.1 26.36 50.89 z" stroke-linecap="round" />
</g>
</g>
</g>
</svg>