<svg height="19" viewBox="0 0 190 19" width="190" xmlns="http://www.w3.org/2000/svg"><g fill="#00D766" fill-rule="evenodd"><path d="m0 .6367v9.806 6.095h14.223l2.706-4.505-1.863-3.402 1.863-3.246-2.706-4.748zm3.704 2.915h8.075l.917 1.789-.917 1.789h-8.075zm0 6.494h8.075l.917 1.788-.917 1.789h-8.075z"></path><path d="m43.9087.0004-1.061 1.843-1.063 1.848-.001.001-7.396 12.845h4.231l5.304-9.14 5.278 9.14h4.231l-8.343-14.489-1.179-2.048z"></path><path d="m56.4471.6367-4.603 7.951 4.603 7.95h12.326l-1.825-2.915h-7.961l-2.91-5.035 2.91-5.036h7.961l1.825-2.915z"></path><path d="m19.0449.6367v15.901h3.703 11.11l-1.852-2.915h-9.258v-12.986z"></path><path d="m82.5282.6367-7.898 7.915h-.008l.004.003-.033.033v-7.951h-3.703v16.431l6.107-6.118 5.531 5.588h4.762l-7.903-7.983 7.903-7.918z"></path><path d="m144.4243.0004-1.061 1.843-1.063 1.848-.001.001-7.396 12.845h4.231l5.304-9.14 5.277 9.14h4.232l-8.343-14.489-1.179-2.048z"></path><path d="m155.5344.6367v15.901h3.704v-6.36h1.583l6.352 6.369 4.761.014-6.361-6.383h3.609l2.752-4.771-2.645-4.77zm3.704 2.915h7.406l1.058 1.855-1.058 1.856h-7.406z"></path><path d="m100.6209.6367-2.75 4.77 2.671 4.639h10.09l.993 1.722h-.001l-1.07 1.855h-10.855l-1.828 2.915h15.236l2.751-4.77-2.672-4.638h-4.235-5.858l-.992-1.723h-.001l1.07-1.855h10.863l1.825-2.915z"></path><path d="m129.6117.6367v6.626h-8.464v-6.626h-3.703v18.022l3.703-2.121v-6.36h8.464v6.36h3.704v-15.901z"></path><path d="m185.1606.6367-7.899 7.915h-.007l.003.003-.033.033v-7.951h-3.703v16.431l6.107-6.118 5.532 5.588h4.761l-7.902-7.983 7.902-7.918z"></path></g></svg>