<?xml version="1.0" encoding="utf-8"?>
<!-- Generator: Adobe Illustrator 12.0.0, SVG Export Plug-In . SVG Version: 6.00 Build 51448)  -->
<!DOCTYPE svg PUBLIC "-//W3C//DTD SVG 1.1//EN" "http://www.w3.org/Graphics/SVG/1.1/DTD/svg11.dtd" [
	<!ENTITY ns_svg "http://www.w3.org/2000/svg">
	<!ENTITY ns_xlink "http://www.w3.org/1999/xlink">
]>
<svg  version="1.1" id="Layer_1" xmlns="&ns_svg;" xmlns:xlink="&ns_xlink;" width="102.489" height="28.349"
	 viewBox="0 0 102.489 28.349" overflow="visible" enable-background="new 0 0 102.489 28.349" xml:space="preserve">
<rect fill="none" width="102.489" height="28.349"/>
<path d="M14.265,20.489c-2.129-3.164-4.151-6.408-6.313-9.556C6.888,9.32,5.227,8.052,3.222,8.099L3.175,8.035V4.511
	c3.508-0.141,6.672,2.067,8.458,5.013c2.052,3.007,3.964,6.077,5.937,9.086c1.159,1.77,3.07,3.178,5.311,2.772
	c2.365-0.313,3.916-2.648,5.028-4.544c1.833-2.944,3.712-5.874,5.64-8.771c2.176-2.961,5.419-4.605,9.085-4.089
	c2.898,0.314,5.403,2.365,6.955,4.873c2.083,3.21,4.088,6.453,6.173,9.68c1.096,1.536,2.631,2.804,4.541,2.757l0.017,3.54
	l-0.047,0.032c-3.103,0.077-5.765-1.504-7.52-3.995c-2.381-3.509-4.526-7.128-6.86-10.667c-1.223-1.927-3.337-3.055-5.641-2.585
	c-1.55,0.22-2.835,1.519-3.728,2.804c-2.427,3.603-4.59,7.33-7.111,10.917c-2.24,3.133-5.937,4.292-9.603,3.463
	C17.524,24.264,15.534,22.525,14.265,20.489 M65.975,24.86l0.046,0.061h3.808l0.047-0.03V11.389
	c0.016-0.721,0.016-1.754,0.094-2.554c0.109-0.956,0.517-1.864,1.174-2.601c-0.75-1.049-1.502-2.052-2.285-3.101h-0.063
	c-1.253,1.159-2.161,2.6-2.476,4.213c-0.046,0.047-0.078,0.125-0.031,0.188c-0.251,0.83-0.234,1.629-0.313,2.459
	C65.959,14.914,65.959,19.878,65.975,24.86 M95.362,14.411c0-0.047-0.078-0.092,0-0.125c0-0.439-0.063-0.908-0.096-1.363
	c-0.359-2.412-2.301-4.95-4.715-5.702c-2.693-0.939-5.686-0.141-7.533,1.99c-2.084,2.255-2.459,5.889-1.064,8.583
	c1.314,2.492,3.883,3.949,6.641,3.838c2.506-0.156,4.826-1.644,5.922-3.946C95.065,16.699,95.315,15.556,95.362,14.411
	 M93.184,24.187c-3.711,2.005-8.975,1.394-12.094-1.425c-1.377-1.178-2.395-2.711-3.102-4.262c-1.691-4.057-0.658-9.258,2.6-12.281
	c2.867-2.851,7.301-3.744,11.201-2.475c4.104,1.174,7.223,5.404,7.488,9.603C99.639,17.842,97.178,22.134,93.184,24.187z
	 M38.672,19.283c0.141,0.329,0.36,0.643,0.595,0.94c0.783,0.813,2.067,1.05,3.148,0.657c1.003-0.408,1.801-1.394,1.848-2.475
	c0.142-1.207-0.485-2.381-1.613-2.945c-1.05-0.502-2.397-0.267-3.243,0.533C38.53,16.823,38.216,18.202,38.672,19.283"/>
</svg>
